<?xml version="1.0" standalone="no"?>
<!DOCTYPE svg PUBLIC "-//W3C//DTD SVG 20010904//EN"
 "http://www.w3.org/TR/2001/REC-SVG-20010904/DTD/svg10.dtd">
<svg version="1.0" xmlns="http://www.w3.org/2000/svg"
 width="1022.000000pt" height="1022.000000pt" viewBox="0 0 1022.000000 1022.000000"
 preserveAspectRatio="xMidYMid meet">
<metadata>
Created by potrace 1.14, written by Peter Selinger 2001-2017
</metadata>
<g transform="translate(0.000000,1022.000000) scale(0.100000,-0.100000)"
fill="#000000" stroke="none">
<path d="M5518 8509 c-7 -5 -14 -13 -14 -19 -1 -5 -2 -15 -3 -21 0 -5 -7 -7
-13 -3 -8 5 -8 2 1 -10 12 -15 12 -17 0 -14 -9 2 -14 -5 -13 -19 0 -13 -1 -21
-4 -19 -8 9 -29 -19 -25 -31 3 -7 0 -13 -6 -13 -6 0 -11 -11 -11 -24 0 -13 -7
-27 -16 -30 -8 -3 -12 -10 -9 -16 3 -5 1 -10 -5 -10 -6 0 -9 -4 -6 -9 3 -5 -1
-14 -9 -21 -8 -7 -12 -16 -9 -21 3 -5 -2 -12 -11 -15 -13 -6 -14 -8 -3 -15 10
-7 10 -9 1 -9 -7 0 -13 -7 -13 -15 0 -9 -6 -18 -14 -21 -20 -8 -7 -44 15 -44
11 0 19 5 19 12 0 6 7 3 15 -8 10 -13 14 -14 15 -5 0 11 3 11 18 0 9 -7 14
-10 11 -6 -4 5 4 19 18 33 13 13 22 28 18 33 -3 5 -1 12 5 16 5 3 10 0 10 -7
0 -8 3 -9 8 -3 11 15 45 12 60 -5 8 -8 11 -10 8 -3 -4 6 -2 14 4 18 5 3 10 1
10 -5 0 -7 7 -9 15 -6 9 3 18 -1 21 -9 4 -8 10 -12 15 -9 5 3 9 2 8 -3 -4 -24
2 -53 11 -48 6 3 10 -1 10 -9 0 -9 5 -16 11 -16 5 0 7 6 3 13 -6 9 -4 9 7 1
23 -18 51 -26 43 -12 -5 8 -2 9 9 5 22 -8 32 10 15 30 -11 14 -11 15 0 9 11
-6 11 -2 -1 20 -8 16 -13 37 -12 47 2 9 -1 15 -6 11 -9 -5 -13 17 -9 45 1 8
-6 21 -16 28 -10 7 -13 13 -7 13 6 0 9 9 6 20 -3 11 -10 17 -17 13 -6 -3 -8
-3 -4 2 4 4 2 15 -5 23 -10 13 -9 14 3 7 12 -7 13 -6 3 7 -7 8 -10 18 -7 21 3
3 -1 16 -10 28 -11 16 -12 27 -5 41 9 17 2 23 -23 19 -4 0 -5 6 -2 14 4 8 0
17 -7 20 -27 9 -88 12 -101 4z m52 -184 c0 -8 4 -15 8 -15 5 0 9 -7 9 -15 0
-8 -5 -11 -10 -8 -6 4 -8 0 -4 -11 5 -14 3 -15 -13 -6 -17 9 -19 8 -13 -7 4
-13 3 -15 -5 -8 -11 11 -15 29 -13 57 1 12 6 15 18 11 11 -4 14 -3 9 5 -4 7
-2 12 3 12 6 0 11 -7 11 -15z"/>
<path d="M4801 8495 c-18 -24 -20 -45 -3 -54 11 -7 12 -11 4 -11 -8 0 -10 -5
-5 -12 11 -18 13 -39 3 -33 -10 6 -7 -21 3 -31 12 -12 8 -26 -5 -18 -10 6 -10
5 -1 -7 7 -8 13 -39 15 -69 2 -30 7 -61 12 -68 5 -8 1 -21 -10 -33 -16 -18
-16 -19 -1 -13 18 7 23 -6 8 -21 -5 -6 1 -20 16 -35 18 -19 22 -21 17 -6 -6
16 -4 17 14 7 13 -7 23 -7 27 -1 3 5 13 6 22 3 12 -5 14 -3 8 8 -6 11 -5 12 5
2 9 -8 19 -9 32 -2 13 7 18 6 18 -3 0 -8 3 -9 8 -3 10 14 75 16 84 2 6 -9 8
-8 8 1 0 8 5 10 13 6 8 -5 7 -2 -2 9 -12 15 -12 17 3 11 13 -5 16 1 16 30 0
20 -3 36 -7 37 -60 7 -72 6 -67 -3 4 -6 -1 -6 -14 1 -14 7 -23 8 -27 1 -4 -6
-12 -7 -18 -3 -6 4 -23 7 -37 7 -16 1 -24 6 -22 15 2 8 0 21 -4 30 -8 21 -9
85 0 99 3 6 1 14 -5 17 -5 4 -8 13 -5 21 3 7 1 16 -5 20 -6 4 -6 11 2 20 9 11
9 14 -1 14 -10 0 -10 3 -1 14 9 11 9 15 -1 19 -10 4 -10 8 2 16 12 9 10 11
-10 12 -23 0 -23 1 -5 9 14 6 6 8 -28 7 -27 -1 -52 -6 -56 -12z"/>
<path d="M6074 8428 c-5 -7 -2 -8 7 -4 8 4 6 1 -5 -8 -10 -8 -15 -20 -10 -27
5 -8 3 -10 -5 -5 -8 5 -12 3 -10 -5 4 -33 -1 -50 -13 -43 -9 5 -9 2 1 -9 9
-12 10 -17 2 -17 -7 0 -9 -4 -6 -10 3 -5 2 -10 -4 -10 -6 0 -8 -6 -5 -14 3 -8
0 -17 -6 -21 -9 -6 -9 -10 1 -16 10 -6 11 -9 2 -9 -7 0 -13 -9 -13 -20 0 -11
-4 -20 -10 -20 -5 0 -10 -5 -10 -11 0 -5 5 -7 12 -3 7 4 3 -6 -8 -22 -11 -16
-20 -38 -19 -49 0 -11 -3 -28 -7 -37 -5 -10 -2 -22 7 -31 8 -8 11 -18 7 -22
-4 -4 3 -2 16 4 17 9 22 9 22 -1 0 -9 3 -9 10 2 6 9 10 11 10 3 0 -7 7 -10 16
-6 8 3 13 12 10 19 -3 8 -1 14 5 14 6 0 7 5 4 10 -3 6 -1 10 6 10 9 0 9 3 0
14 -10 11 -8 17 6 25 14 8 15 11 3 11 -12 0 -11 3 3 11 15 9 16 13 5 27 -11
13 -11 14 1 7 11 -6 13 -4 8 8 -3 10 -2 17 4 17 6 0 7 5 4 10 -9 14 4 12 18
-3 15 -15 21 -35 20 -64 -1 -13 3 -21 7 -18 4 3 10 -4 13 -15 3 -11 0 -20 -6
-20 -7 0 -4 -5 6 -11 14 -8 15 -14 6 -32 -7 -12 -8 -19 -3 -14 4 4 13 -7 19
-25 6 -18 16 -32 23 -30 7 1 12 -2 12 -6 0 -4 12 -9 27 -10 15 -1 31 -6 37
-12 13 -13 36 7 36 32 0 10 3 17 8 15 4 -3 8 13 9 35 2 23 8 48 15 56 11 13
10 15 -2 8 -8 -4 -7 -1 3 7 14 11 15 16 5 20 -9 4 -10 6 -1 6 7 1 10 8 7 16
-4 8 -1 15 4 15 6 0 9 9 7 20 -2 11 0 20 5 20 5 0 7 7 4 15 -4 8 -2 15 4 15 6
0 9 11 8 24 -2 15 3 27 12 31 12 4 12 8 1 22 -10 12 -10 14 -1 9 7 -4 12 -2
12 7 0 17 -27 30 -42 20 -6 -3 -8 -1 -5 4 6 9 -15 19 -42 23 -3 0 -6 -7 -7
-16 -2 -9 -7 -21 -13 -27 -15 -15 -14 -30 2 -22 6 4 3 -1 -7 -9 -15 -12 -16
-16 -5 -16 11 0 11 -2 1 -8 -7 -5 -15 -22 -18 -38 -7 -45 -12 -54 -29 -54 -8
0 -15 9 -15 21 0 11 -4 18 -8 15 -5 -3 -9 1 -9 9 0 8 5 15 11 15 6 0 4 5 -6
10 -9 6 -14 18 -11 28 2 11 -3 26 -12 36 -12 12 -13 16 -3 16 10 0 10 2 -1 9
-11 7 -11 9 0 14 11 4 11 6 1 6 -7 1 -10 6 -7 11 3 6 1 10 -4 10 -6 0 -10 6
-8 13 1 6 -4 11 -12 9 -8 -2 -11 3 -8 12 4 11 1 13 -10 9 -12 -5 -14 -3 -8 8
8 12 6 12 -8 0 -13 -10 -17 -10 -17 -1 0 9 -4 9 -17 -1 -9 -8 -14 -9 -10 -3 4
7 0 14 -8 18 -8 3 -17 0 -21 -6z"/>
<path d="M3961 8302 c-1 -7 -5 -10 -11 -7 -5 3 -10 1 -10 -4 0 -6 -11 -11 -25
-11 -18 0 -25 -5 -25 -20 0 -11 5 -20 10 -20 6 0 9 -3 9 -7 -4 -25 2 -43 13
-37 7 4 8 3 4 -5 -4 -6 0 -23 9 -38 9 -14 13 -23 8 -20 -5 4 -10 0 -10 -8 0
-8 4 -12 9 -9 8 5 12 -10 9 -35 -2 -8 2 -10 10 -5 9 5 10 2 6 -10 -4 -10 -1
-19 8 -22 11 -5 12 -10 4 -26 -8 -15 -8 -19 0 -14 6 4 11 0 11 -8 0 -25 2 -30
19 -44 12 -10 12 -12 1 -6 -13 7 -13 5 -1 -9 7 -9 10 -17 5 -17 -5 0 -1 -5 9
-11 9 -6 15 -15 11 -20 -3 -6 10 -3 30 5 20 8 36 12 36 8 0 -3 5 -1 12 6 14
14 20 45 7 36 -8 -4 -14 34 -10 59 1 5 -3 6 -9 2 -6 -4 -10 5 -10 20 0 17 -4
24 -12 19 -8 -5 -9 -2 -5 9 3 9 2 19 -3 22 -5 3 -6 13 -3 22 5 12 3 14 -7 8
-10 -6 -12 -4 -7 8 3 10 2 17 -4 17 -6 0 -9 5 -7 12 3 7 -3 20 -11 30 -8 10
-17 30 -18 45 -2 16 -4 33 -5 40 -1 7 -5 10 -10 7 -4 -3 -8 4 -8 16 0 12 -4
19 -9 16 -5 -4 -12 0 -14 6 -4 10 -6 10 -6 0z"/>
<path d="M6694 8214 c3 -8 -1 -14 -10 -14 -8 0 -12 -4 -9 -10 3 -5 2 -10 -4
-10 -5 0 -8 -9 -6 -20 2 -11 0 -18 -6 -15 -5 4 -9 -3 -9 -15 0 -11 -6 -23 -14
-26 -8 -3 -13 -14 -11 -25 2 -11 0 -17 -6 -14 -5 4 -9 -3 -9 -15 0 -12 -4 -19
-9 -15 -6 3 -8 -4 -6 -16 3 -14 0 -19 -9 -16 -9 4 -13 -1 -12 -11 2 -9 -4 -23
-13 -30 -13 -11 -13 -12 -1 -7 12 5 12 4 -1 -7 -9 -7 -14 -19 -12 -25 3 -7 0
-13 -6 -13 -6 0 -11 -9 -11 -19 0 -11 -6 -21 -12 -24 -7 -2 0 -8 17 -12 16 -5
36 -14 43 -22 10 -9 19 -10 33 -2 11 5 17 14 14 18 -2 5 5 19 16 32 11 13 25
31 30 39 8 13 10 13 19 0 5 -8 10 -11 10 -6 0 5 7 3 15 -4 12 -10 13 -16 3
-28 -11 -13 -11 -14 1 -7 11 6 13 4 8 -8 -4 -10 -1 -17 6 -17 9 0 9 -2 0 -8
-10 -7 -10 -12 1 -28 10 -12 11 -23 5 -31 -7 -7 -3 -16 10 -25 12 -8 18 -18
13 -23 -4 -4 1 -5 11 -2 9 4 17 2 17 -4 0 -6 5 -7 10 -4 6 3 10 2 10 -3 0 -18
33 -23 49 -7 8 8 11 15 5 15 -6 0 -11 6 -12 13 0 6 -3 21 -5 32 -2 11 0 26 6
33 7 9 6 11 -7 6 -10 -4 -16 -1 -16 9 0 8 6 18 13 20 6 3 3 6 -8 6 -17 1 -17
3 -5 11 8 5 10 10 4 10 -6 0 -9 13 -6 30 2 17 0 30 -5 30 -5 0 -9 11 -9 24 0
14 3 23 7 20 4 -2 9 3 13 11 3 8 12 12 20 9 8 -3 17 -1 20 5 4 6 13 8 22 4 8
-3 14 -1 12 5 -2 5 0 9 3 9 3 -1 14 5 24 13 11 8 16 10 12 3 -4 -6 -3 -15 3
-18 6 -4 9 -1 8 7 -2 7 7 14 20 16 13 2 20 8 16 14 -5 7 -1 9 9 5 23 -9 27 15
5 36 -20 19 -25 9 -5 -13 6 -8 0 -5 -14 8 -14 12 -31 22 -39 22 -7 0 -18 6
-24 13 -6 7 -10 10 -9 8 6 -10 -43 -27 -53 -19 -7 5 -16 2 -24 -7 -7 -8 -19
-15 -27 -15 -9 0 -11 -5 -7 -12 5 -8 0 -7 -11 2 -10 8 -16 10 -12 4 4 -7 -2
-13 -17 -16 -19 -4 -22 -1 -20 20 1 14 10 30 19 35 13 7 14 12 4 23 -9 11 -8
14 7 15 12 0 14 3 6 6 -10 4 -10 8 0 21 10 12 10 14 1 8 -7 -4 -13 -2 -13 3 0
6 -7 11 -15 11 -8 0 -15 3 -15 8 0 4 -12 8 -26 8 -18 2 -24 -2 -20 -12z"/>
<path d="M3585 8121 c-3 -6 -14 -8 -25 -6 -11 2 -20 -1 -20 -6 0 -6 -4 -8 -9
-5 -5 3 -14 -1 -21 -9 -7 -8 -21 -15 -31 -15 -11 0 -19 -7 -19 -17 0 -15 -2
-16 -10 -3 -7 11 -10 11 -10 2 0 -7 -5 -10 -10 -7 -6 3 -13 -1 -16 -9 -3 -9
-10 -14 -14 -11 -5 3 -15 -2 -24 -10 -8 -9 -17 -14 -20 -13 -2 2 -8 -1 -13 -6
-5 -5 -3 -6 5 -2 7 4 12 1 12 -9 0 -9 4 -14 9 -11 4 3 7 -6 5 -19 -1 -14 2
-25 8 -25 6 0 8 -7 4 -15 -3 -8 -2 -14 2 -14 22 4 30 -3 25 -21 -3 -11 0 -20
6 -20 6 0 11 -6 11 -14 0 -8 6 -17 13 -19 8 -4 8 -6 -3 -6 -10 -1 -8 -6 8 -17
12 -8 22 -24 22 -35 0 -11 6 -22 14 -25 8 -3 13 -11 10 -17 -2 -7 7 -25 21
-41 13 -16 22 -34 18 -40 -3 -6 -3 -8 2 -4 4 4 15 2 24 -4 9 -7 12 -8 8 -3 -4
5 7 16 24 25 18 8 35 21 37 29 3 8 0 11 -7 7 -7 -5 -9 -1 -5 8 3 9 1 16 -5 16
-6 0 -8 7 -4 17 4 11 3 14 -5 9 -8 -5 -12 0 -12 13 0 10 -6 21 -12 24 -10 3
-10 8 1 21 11 13 16 14 22 4 7 -10 9 -10 9 1 0 11 6 8 20 -7 12 -12 29 -22 40
-22 10 0 25 -8 32 -18 14 -19 60 -21 66 -3 3 9 8 8 20 -1 12 -10 14 -10 8 0
-4 7 -1 12 9 12 10 0 13 5 9 12 -5 7 -2 9 8 6 8 -4 15 0 15 8 0 7 -4 11 -8 9
-4 -3 -10 2 -13 11 -3 8 -10 12 -16 9 -5 -3 -10 -1 -10 4 0 6 -9 11 -20 11
-11 0 -20 7 -20 15 0 8 -3 14 -7 14 -34 -5 -49 27 -23 49 13 11 13 12 0 6 -12
-6 -13 -5 -3 7 10 12 10 18 0 29 -9 10 -9 11 1 6 6 -4 12 -3 12 1 0 5 -6 15
-12 22 -11 11 -10 12 2 6 9 -5 7 1 -5 15 -11 13 -14 20 -7 16 6 -4 12 -2 12 3
0 6 -8 11 -17 11 -14 0 -15 2 -4 9 11 7 9 10 -8 16 -11 3 -21 11 -21 16 0 6
-4 8 -9 5 -4 -3 -16 1 -27 8 -10 8 -25 11 -33 8 -9 -3 -12 -1 -7 6 4 7 5 12 2
12 -3 0 -7 -4 -11 -9z m-11 -103 c3 6 18 -1 35 -17 25 -22 27 -28 16 -37 -8
-6 -12 -13 -9 -17 3 -3 -11 -11 -30 -18 -20 -7 -36 -17 -36 -21 0 -4 -7 -8
-16 -8 -9 0 -12 5 -8 12 5 8 2 9 -10 5 -9 -4 -14 -3 -11 2 3 5 1 12 -5 16 -17
10 -11 55 8 62 9 4 23 13 31 21 10 10 16 11 21 2 5 -8 10 -8 14 -2z"/>
<path d="M7385 7792 c-3 -8 -8 -12 -11 -9 -3 3 -15 -4 -26 -15 -11 -11 -26
-17 -34 -14 -9 3 -12 1 -9 -4 4 -6 -7 -15 -24 -21 -18 -6 -28 -16 -24 -22 4
-6 0 -8 -10 -4 -9 3 -18 0 -21 -9 -3 -8 -11 -13 -18 -12 -7 2 -11 -4 -10 -12
2 -8 0 -12 -4 -7 -4 4 -16 -1 -27 -10 -15 -13 -18 -14 -12 -3 7 12 6 13 -7 3
-8 -7 -19 -9 -24 -5 -4 4 -2 -2 6 -13 8 -11 11 -17 6 -13 -4 3 -19 0 -33 -7
-15 -8 -31 -11 -37 -8 -6 3 -8 3 -4 -2 4 -4 2 -17 -3 -28 -10 -18 -9 -19 10
-14 18 4 20 3 10 -9 -10 -12 -9 -13 5 -8 9 3 18 0 21 -8 6 -15 45 -22 45 -7 0
5 6 8 13 7 6 -2 11 3 9 11 -3 12 0 12 12 1 13 -10 16 -10 16 1 1 10 5 9 14 -4
11 -14 15 -15 19 -5 4 10 6 10 6 1 1 -7 8 -13 16 -13 8 0 15 -7 15 -16 0 -10
5 -14 16 -10 8 3 13 2 11 -2 -6 -9 18 -32 27 -26 3 2 2 -1 -4 -8 -6 -8 -5 -17
3 -27 9 -12 9 -13 0 -7 -8 4 -13 2 -14 -6 0 -7 -2 -21 -4 -30 -2 -10 2 -21 7
-25 7 -4 8 -1 3 7 -5 9 -4 11 3 6 7 -4 12 -14 12 -22 0 -8 9 -14 20 -14 11 0
20 -5 20 -11 0 -21 34 24 38 50 2 14 8 31 14 38 8 10 7 13 -3 13 -9 0 -10 3
-4 8 6 4 16 17 23 30 11 19 11 26 0 40 -10 12 -10 14 0 8 8 -5 12 1 12 19 0
18 4 24 13 19 7 -5 6 0 -3 11 -9 11 -10 16 -2 11 8 -5 12 0 12 16 0 13 6 30
13 37 10 11 9 12 -3 6 -13 -8 -13 -6 -2 8 8 9 11 20 8 26 -3 5 -2 11 3 13 6 1
13 18 16 36 4 22 2 31 -5 27 -5 -3 -10 2 -10 11 0 10 -3 15 -6 11 -3 -3 -15 2
-26 12 -23 22 -65 24 -73 3z m-9 -155 c4 -4 1 -7 -6 -7 -7 0 -10 -3 -7 -7 4
-3 1 -13 -6 -21 -10 -13 -9 -15 3 -8 8 4 6 0 -5 -9 -18 -14 -20 -14 -23 0 -2
8 -8 13 -13 10 -5 -4 -9 -1 -9 5 0 6 -4 8 -10 5 -5 -3 -7 0 -4 9 3 8 12 12 20
9 8 -3 14 -2 13 3 -1 5 -1 12 0 16 1 9 37 5 47 -5z"/>
<path d="M3049 7789 c-7 -4 -17 -5 -22 -2 -4 3 -15 -3 -23 -13 -9 -11 -13 -13
-9 -7 4 9 1 11 -10 7 -9 -4 -14 -12 -11 -20 3 -8 -2 -11 -15 -9 -12 2 -19 -2
-19 -11 0 -10 -5 -12 -12 -8 -9 5 -8 2 1 -9 8 -10 11 -20 7 -24 -3 -3 -6 -1
-6 6 0 7 -5 9 -10 6 -6 -4 -8 -10 -5 -15 3 -4 -2 -11 -11 -14 -13 -5 -14 -9
-5 -20 8 -10 9 -16 1 -21 -5 -3 -10 -11 -10 -16 0 -6 4 -8 9 -5 4 3 7 -6 5
-19 -1 -14 2 -25 7 -25 6 0 7 -4 4 -10 -3 -5 1 -10 10 -10 9 0 13 -4 10 -10
-6 -9 8 -14 28 -11 4 0 7 -4 7 -10 0 -5 4 -8 9 -4 5 3 12 -3 14 -12 4 -15 5
-15 6 -2 1 12 8 15 26 11 16 -3 25 0 25 9 0 7 3 9 7 6 3 -4 13 -1 21 6 13 10
14 9 8 -2 -6 -8 0 -7 18 4 14 10 26 21 26 26 0 5 5 9 11 9 5 0 7 -5 3 -11 -3
-6 4 -4 17 5 17 10 29 12 39 6 8 -5 11 -10 5 -10 -5 0 -3 -5 5 -10 11 -7 11
-10 2 -10 -7 0 -10 -5 -7 -10 4 -6 3 -9 -2 -8 -4 2 -9 -1 -10 -5 -4 -20 -37
-33 -77 -31 -32 1 -45 -3 -55 -18 -6 -10 -9 -23 -6 -29 4 -5 1 -8 -6 -7 -6 2
-14 -3 -17 -11 -3 -10 0 -11 9 -5 12 7 12 5 0 -9 -7 -9 -11 -18 -7 -18 3 -1
15 -3 26 -4 11 -1 21 -3 23 -5 7 -6 57 -4 57 2 0 4 7 5 16 1 10 -4 22 1 30 11
7 10 17 15 23 11 6 -3 11 2 11 12 0 14 2 15 9 4 6 -9 11 -10 15 -2 4 6 5 11 2
11 -3 0 2 8 12 18 9 11 20 17 24 15 4 -2 10 2 14 8 4 8 3 9 -4 5 -7 -4 -12 -3
-12 2 0 6 7 13 16 16 14 5 14 9 3 23 -8 9 -9 14 -3 10 7 -4 14 0 18 8 3 8 0
15 -7 15 -8 0 -8 3 2 9 11 7 10 11 -5 20 -11 6 -14 11 -7 11 6 0 11 9 10 19
-1 15 -4 17 -14 9 -11 -8 -12 -7 -7 8 4 10 4 16 -1 12 -4 -4 -16 1 -25 12 -17
20 -87 39 -75 20 4 -6 -1 -7 -10 -3 -10 3 -21 0 -26 -8 -7 -11 -9 -11 -9 -1 0
9 -8 7 -28 -7 -23 -16 -32 -17 -41 -8 -10 9 -11 8 -5 -7 6 -16 4 -18 -9 -13
-9 3 -17 3 -17 -2 0 -15 -27 -7 -39 12 -8 11 -8 16 -2 12 6 -3 11 1 11 10 0
10 5 13 12 9 7 -5 9 -2 5 9 -4 12 -2 14 10 10 10 -4 14 -2 10 4 -8 12 11 12
30 0 6 -4 15 -2 19 4 5 8 3 9 -6 4 -9 -6 -11 -4 -5 4 5 9 10 10 18 2 14 -14
30 -14 22 -1 -3 6 -1 10 5 10 6 0 8 5 5 10 -3 6 -1 10 4 10 6 0 11 7 11 15 0
8 5 15 10 15 6 0 5 6 -2 14 -7 8 -16 12 -20 9 -5 -2 -8 0 -8 4 0 11 -64 13
-81 2z"/>
<path d="M5036 7781 c-4 -5 -14 -7 -23 -4 -9 4 -14 2 -10 -3 3 -5 -3 -10 -13
-10 -10 0 -16 4 -14 8 3 4 -4 8 -15 8 -12 0 -21 -4 -21 -9 0 -4 -14 -7 -32 -5
-18 2 -35 -1 -40 -8 -6 -10 -10 -10 -18 2 -9 13 -10 13 -10 0 0 -13 -1 -13
-10 0 -5 8 -10 10 -10 4 0 -11 -2 -11 -57 -15 -18 -1 -31 -5 -28 -8 5 -10 -38
-7 -53 2 -7 5 -14 3 -18 -6 -3 -8 -17 -13 -34 -12 -17 1 -30 -2 -30 -6 0 -4
-9 -6 -20 -4 -11 2 -20 -1 -20 -7 0 -7 -5 -6 -14 1 -11 9 -16 9 -22 0 -5 -8
-3 -10 7 -4 8 5 11 4 7 0 -7 -7 -33 -12 -100 -18 -9 -1 -14 -5 -12 -9 3 -4 -6
-8 -20 -8 -14 0 -26 -4 -26 -10 0 -5 -7 -6 -17 -3 -12 5 -14 3 -8 -8 6 -11 5
-11 -5 -2 -13 12 -43 7 -35 -7 2 -4 -7 -6 -20 -4 -14 1 -25 -3 -25 -9 0 -5 -3
-7 -7 -4 -3 4 -13 1 -21 -6 -13 -10 -14 -9 -8 1 7 11 4 11 -15 0 -13 -7 -26
-15 -29 -18 -3 -3 -12 -5 -20 -5 -8 0 -20 -6 -27 -15 -11 -13 -12 -13 -13 0
-1 13 -2 13 -13 0 -12 -15 -30 -22 -54 -23 -7 0 -13 -4 -13 -8 0 -4 -7 -10
-16 -13 -8 -3 -13 -2 -10 3 4 5 -3 7 -15 4 -16 -5 -18 -8 -7 -15 9 -7 7 -8
-10 -5 -12 3 -20 1 -16 -4 3 -5 0 -10 -5 -10 -6 -1 -17 -2 -23 -3 -7 -1 -12
-7 -11 -13 2 -7 -6 -10 -17 -8 -11 2 -20 -1 -20 -7 0 -6 -3 -8 -7 -5 -3 4 -12
-1 -20 -11 -8 -9 -12 -12 -9 -6 3 6 -1 11 -9 11 -8 0 -13 -3 -12 -6 1 -3 -1
-6 -4 -6 -4 0 -16 -8 -26 -18 -11 -9 -23 -14 -26 -10 -4 3 -7 1 -7 -5 0 -7 -7
-12 -16 -12 -8 0 -12 -4 -9 -10 3 -6 -1 -7 -9 -4 -10 4 -16 1 -16 -7 0 -7 -3
-10 -6 -6 -3 3 -16 -3 -27 -14 -12 -11 -27 -17 -34 -15 -7 3 -15 0 -19 -6 -4
-7 -3 -8 4 -4 7 4 12 4 12 1 0 -3 -14 -11 -30 -17 -17 -5 -35 -18 -40 -29 -6
-10 -17 -16 -25 -13 -8 4 -18 -1 -21 -10 -3 -9 -10 -13 -15 -10 -5 3 -9 0 -9
-6 0 -6 -4 -9 -9 -6 -5 3 -12 -1 -15 -10 -3 -8 -10 -12 -16 -9 -5 3 -10 -1
-10 -10 0 -9 -5 -15 -11 -13 -6 2 -26 -11 -45 -30 -18 -18 -38 -31 -44 -27 -9
6 -15 -8 -11 -29 1 -5 -6 -3 -15 5 -10 8 -16 10 -13 4 8 -15 -36 -55 -61 -55
-5 0 -7 -7 -3 -15 3 -9 2 -15 -3 -14 -25 4 -36 -2 -30 -17 6 -15 4 -15 -11 -3
-9 8 -14 9 -10 3 4 -7 0 -15 -9 -18 -8 -3 -12 -11 -8 -17 4 -7 3 -9 -3 -6 -13
8 -53 -25 -53 -43 0 -7 -3 -11 -6 -7 -9 9 -63 -46 -56 -57 3 -5 -3 -6 -14 -2
-10 4 -15 4 -12 1 4 -4 -7 -20 -23 -36 -16 -15 -29 -33 -29 -39 0 -6 -4 -8
-10 -5 -5 3 -10 1 -10 -5 0 -6 -4 -8 -10 -5 -5 3 -7 0 -4 -8 3 -8 -2 -17 -11
-21 -10 -3 -13 -11 -9 -18 5 -9 2 -8 -9 1 -15 12 -17 12 -12 -1 6 -15 -18 -48
-35 -48 -5 0 -7 -7 -4 -15 4 -10 0 -15 -11 -15 -9 0 -13 -4 -10 -10 3 -5 2
-10 -2 -10 -5 0 -18 -7 -29 -16 -10 -8 -12 -13 -4 -9 8 4 6 -1 -4 -9 -26 -21
-42 -20 -56 2 -11 16 -11 16 -6 -1 5 -14 2 -16 -13 -8 -10 6 -21 7 -25 3 -4
-3 -11 0 -16 8 -8 12 -10 12 -10 1 0 -11 -3 -11 -15 -1 -8 7 -15 9 -15 4 0 -5
-12 -10 -27 -11 -47 -3 -81 -11 -100 -22 -10 -6 -14 -11 -10 -11 5 0 1 -7 -7
-16 -9 -8 -21 -12 -27 -8 -8 5 -9 3 -5 -5 5 -7 1 -17 -8 -24 -9 -7 -18 -22
-19 -34 0 -12 -5 -19 -9 -17 -4 3 -9 0 -9 -5 -1 -6 -3 -15 -4 -21 -1 -5 -3
-15 -4 -21 0 -5 -5 -7 -11 -4 -6 4 -7 -6 -4 -25 4 -19 2 -30 -5 -30 -6 0 -11
-7 -11 -16 0 -9 5 -13 13 -9 6 4 5 1 -3 -7 -8 -7 -14 -24 -12 -37 6 -36 -17
-51 -35 -23 -9 12 -22 22 -30 22 -12 0 -13 3 -4 14 9 11 5 15 -19 19 -17 4
-29 12 -28 19 2 7 -3 12 -9 10 -7 -1 -13 2 -13 8 0 6 -6 9 -12 8 -7 -2 -12 3
-10 10 2 9 -4 11 -18 7 -12 -4 -20 -2 -20 5 0 6 -10 10 -22 9 -13 -2 -29 0
-36 4 -6 5 -12 5 -12 0 0 -4 -4 -2 -9 6 -8 12 -12 12 -25 2 -9 -8 -16 -10 -16
-7 0 4 -9 2 -19 -4 -14 -7 -22 -7 -27 2 -5 7 -3 8 6 3 9 -5 11 -4 6 4 -8 12
-29 5 -22 -7 2 -4 -11 -14 -30 -23 -19 -9 -31 -11 -28 -5 3 6 -3 1 -12 -11 -9
-13 -23 -23 -31 -23 -8 0 -12 -4 -9 -8 3 -5 -4 -16 -15 -25 -11 -10 -17 -22
-14 -27 3 -6 2 -10 -3 -10 -10 0 -42 -64 -42 -85 0 -8 -6 -15 -12 -15 -9 0 -8
-4 2 -10 9 -6 10 -10 3 -10 -6 0 -11 -9 -10 -19 1 -19 37 -26 37 -8 0 5 7 6
16 3 8 -3 13 -2 10 3 -7 10 22 25 41 22 7 -1 10 4 7 12 -3 10 3 13 25 12 17
-1 28 2 25 7 -5 7 18 12 39 9 4 0 7 4 7 9 0 7 7 7 21 -1 15 -8 19 -8 15 0 -4
6 0 12 8 12 53 4 62 4 68 -6 5 -7 8 -6 8 1 0 6 8 10 17 8 35 -4 63 -16 63 -26
0 -7 4 -7 13 -1 8 7 20 2 40 -18 15 -15 24 -30 18 -33 -5 -4 -12 -2 -16 4 -4
6 -11 7 -17 4 -7 -5 -8 -2 -3 7 8 12 6 12 -8 0 -11 -9 -17 -10 -17 -2 0 6 -9
11 -21 11 -11 0 -18 4 -15 9 3 4 -7 6 -22 4 -41 -6 -45 -6 -67 3 -17 7 -18 6
-7 -8 10 -13 9 -15 -13 -10 -14 2 -25 0 -25 -7 0 -6 -7 -8 -17 -4 -11 4 -14 3
-9 -5 4 -7 3 -12 -3 -12 -21 0 -63 -50 -58 -69 3 -13 0 -18 -7 -15 -7 3 -13
-1 -14 -8 -6 -54 -9 -63 -21 -60 -7 1 -10 -2 -6 -8 3 -6 12 -7 18 -3 7 4 6 0
-2 -10 -11 -14 -11 -17 0 -17 11 0 11 -2 -1 -10 -13 -9 -13 -10 0 -10 13 0 13
-1 0 -10 -10 -6 -11 -10 -2 -10 6 0 12 -5 12 -11 0 -5 -4 -7 -10 -4 -5 3 -10
4 -10 1 0 -2 14 -11 30 -20 17 -8 28 -10 25 -5 -4 5 -2 9 4 9 6 0 7 7 4 17 -4
11 -3 14 5 9 7 -4 12 -2 12 4 0 6 5 8 12 4 8 -5 9 -2 5 9 -4 11 -1 17 8 17 8
0 15 4 15 10 0 5 6 9 13 7 6 -1 11 4 9 11 -1 8 2 11 8 7 6 -4 17 -1 25 5 8 6
19 9 25 5 5 -3 10 -2 10 3 0 4 18 8 40 8 22 -1 39 -6 38 -11 -2 -6 -6 -9 -10
-7 -5 1 -8 -3 -8 -9 0 -5 -4 -7 -10 -4 -5 3 -10 0 -10 -7 0 -9 -3 -9 -10 2 -7
11 -10 11 -10 2 0 -7 -5 -10 -10 -7 -6 3 -13 -1 -16 -9 -3 -9 -15 -16 -27 -16
-11 0 -18 -3 -14 -6 3 -3 -9 -19 -26 -36 -23 -21 -27 -27 -12 -23 17 6 16 3
-5 -15 -14 -12 -18 -18 -10 -14 12 6 13 5 4 -7 -6 -8 -11 -33 -11 -57 0 -34 3
-42 15 -37 12 4 12 3 3 -9 -8 -10 -9 -16 -1 -21 6 -3 7 -12 4 -18 -4 -7 -4 -9
1 -5 8 8 35 -15 35 -30 0 -6 7 -13 16 -16 9 -3 12 -11 8 -18 -5 -9 -2 -8 10 1
9 8 16 10 15 5 -3 -20 2 -35 10 -29 5 3 13 0 16 -5 5 -7 12 -5 22 7 14 17 14
17 8 -2 -5 -16 -4 -17 6 -8 10 10 9 15 -1 28 -12 14 -7 20 14 16 5 -1 4 5 -4
13 -9 12 -9 16 -1 16 7 0 9 4 6 10 -3 5 1 20 9 32 12 17 13 25 3 37 -9 12 -9
13 1 7 7 -4 12 -2 12 4 0 6 4 8 10 5 6 -3 7 1 4 9 -3 9 -1 16 5 16 6 0 11 8
11 19 0 10 14 32 30 50 18 18 28 37 24 44 -4 7 -3 9 1 4 5 -4 17 1 27 10 23
20 45 4 33 -24 -4 -10 -9 -24 -11 -32 -1 -8 -8 -17 -14 -21 -6 -4 -10 -11 -9
-16 4 -24 -2 -45 -12 -38 -8 5 -8 1 0 -14 9 -17 7 -23 -11 -36 -15 -11 -18
-16 -8 -16 13 0 13 -2 0 -10 -12 -8 -13 -12 -2 -19 10 -6 8 -10 -9 -14 -18 -5
-21 -9 -12 -18 14 -14 5 -41 -11 -32 -6 3 -8 3 -4 -2 4 -4 2 -17 -4 -29 -11
-20 -10 -20 8 -6 18 14 18 14 1 -6 -9 -11 -14 -24 -10 -27 3 -4 0 -7 -8 -7
-11 0 -11 -2 1 -10 9 -6 11 -10 3 -10 -7 0 -10 -7 -6 -17 4 -9 2 -14 -3 -11
-5 4 -10 -10 -11 -29 -1 -20 -7 -41 -13 -47 -14 -14 -13 -29 3 -20 9 6 8 4 -1
-8 -7 -9 -14 -30 -14 -47 -1 -19 -5 -28 -12 -24 -6 4 -4 -2 4 -12 8 -10 10
-16 4 -12 -8 5 -12 -5 -13 -28 -3 -63 -4 -66 -20 -60 -12 4 -11 2 2 -9 12 -9
14 -16 8 -21 -6 -3 -11 -11 -11 -16 0 -6 6 -7 13 -3 9 6 9 4 1 -7 -6 -8 -12
-27 -13 -44 -1 -41 -6 -63 -14 -71 -4 -4 -7 -12 -7 -18 0 -6 5 -4 10 4 6 9 10
10 10 3 0 -6 -5 -15 -11 -19 -8 -4 -7 -9 2 -15 11 -7 11 -9 -1 -9 -13 0 -13
-1 0 -10 10 -6 11 -10 3 -10 -9 0 -12 -23 -10 -85 1 -47 -1 -85 -5 -85 -4 0
-3 -11 2 -25 5 -14 6 -25 2 -25 -6 0 -8 -44 -2 -60 1 -3 2 -20 2 -37 0 -18 6
-33 12 -33 7 0 7 -3 -1 -8 -13 -8 -12 -29 1 -50 4 -7 2 -20 -6 -29 -11 -14
-11 -16 2 -8 13 8 13 7 1 -8 -10 -13 -10 -17 -1 -17 9 0 9 -4 -1 -17 -10 -11
-10 -14 -1 -9 9 5 12 -4 12 -36 0 -24 6 -50 13 -57 10 -11 10 -13 0 -7 -7 4
-13 2 -13 -3 0 -6 5 -11 11 -11 8 0 8 -5 -1 -15 -10 -12 -10 -15 0 -15 8 0 10
-3 7 -6 -3 -4 -2 -15 3 -25 7 -12 6 -19 -1 -21 -8 -3 -6 -10 5 -21 13 -12 14
-17 4 -17 -10 0 -9 -3 2 -10 13 -9 13 -10 0 -10 -13 0 -13 -2 -1 -9 9 -6 14
-28 14 -60 1 -29 4 -46 9 -38 7 11 11 -7 11 -55 0 -10 4 -18 8 -18 5 0 9 -14
9 -31 0 -21 4 -28 12 -23 9 5 9 2 -1 -9 -9 -11 -10 -17 -2 -17 6 0 11 -5 11
-11 0 -5 -6 -7 -12 -4 -7 4 -6 1 3 -7 9 -7 14 -19 12 -25 -3 -7 1 -13 9 -13
10 0 9 -3 -2 -10 -10 -7 -11 -10 -2 -10 8 0 12 -12 10 -35 -2 -33 -3 -34 -22
-17 -11 9 -16 12 -13 6 9 -16 -18 -25 -32 -11 -7 7 -11 8 -11 0 0 -5 -12 -9
-27 -7 -15 1 -36 -4 -47 -12 -11 -8 -16 -14 -11 -15 13 -1 32 -5 67 -14 20 -5
28 -3 28 6 0 11 3 11 10 -1 6 -10 10 -11 10 -2 0 6 4 12 10 12 5 0 7 -8 4 -17
-5 -14 -4 -15 4 -4 5 7 16 11 23 9 8 -3 22 -1 33 4 13 7 16 7 12 -1 -5 -8 4
-9 29 -5 27 4 35 2 30 -6 -5 -9 -2 -9 11 -3 22 11 124 10 142 -1 7 -4 12 -3
12 3 0 5 19 8 42 6 24 -2 48 1 54 6 8 7 15 6 20 -2 5 -8 3 -9 -6 -4 -9 5 -11
4 -6 -4 6 -9 11 -9 21 -1 9 8 15 8 20 0 3 -6 13 -7 23 -2 22 10 284 8 302 -3
10 -6 12 -4 7 9 -5 11 -3 15 5 10 18 -12 82 -13 95 -3 8 7 15 4 22 -8 6 -10
11 -13 11 -7 0 12 80 12 99 0 6 -4 11 -3 11 3 0 5 20 8 45 6 31 -3 45 0 45 8
0 8 4 7 9 -2 8 -12 14 -13 35 -3 14 6 25 8 23 4 -1 -4 3 -7 8 -7 6 0 9 4 7 10
-2 5 2 5 9 -2 6 -6 18 -9 27 -6 11 5 13 3 7 -7 -6 -10 -4 -11 6 -4 19 12 199
12 199 0 0 -6 7 -1 16 10 8 10 13 14 10 8 -3 -7 4 -14 15 -17 15 -4 19 -2 15
9 -3 9 -1 12 4 9 6 -4 22 -8 36 -11 19 -3 24 -1 18 8 -6 10 -3 9 9 -1 9 -7 17
-10 17 -6 0 4 8 1 17 -6 13 -11 15 -11 9 -1 -10 16 25 13 36 -3 5 -6 8 -5 8 3
0 8 7 11 18 8 9 -3 24 -1 32 4 9 5 19 5 27 -2 7 -6 13 -7 13 -3 0 4 8 1 17 -6
13 -11 15 -11 9 -1 -10 16 25 13 36 -3 5 -6 8 -5 8 3 0 8 7 11 18 8 9 -3 24
-1 32 4 9 5 19 5 27 -2 7 -6 13 -7 13 -3 0 4 8 1 17 -6 13 -11 15 -11 9 -1
-10 16 25 13 36 -3 5 -7 8 -6 8 1 0 5 16 10 35 11 19 1 35 -4 35 -10 0 -6 7
-2 16 9 8 10 13 13 9 7 -4 -9 1 -13 15 -13 12 0 18 4 15 10 -3 6 1 7 9 4 9 -3
13 -11 9 -18 -3 -6 4 -2 17 9 13 11 20 14 16 8 -5 -9 0 -13 14 -13 13 0 19 4
14 12 -4 6 -3 8 3 5 5 -3 24 -9 42 -12 24 -4 31 -2 26 7 -4 7 1 4 9 -6 9 -11
16 -14 16 -7 0 7 4 10 9 7 5 -4 12 0 14 6 4 10 6 10 6 1 1 -7 10 -13 22 -13
11 0 17 4 14 10 -4 6 2 7 17 1 13 -4 28 -6 35 -4 6 2 14 0 17 -6 4 -6 13 -8
21 -5 8 4 12 11 8 18 -5 8 -3 8 8 0 8 -6 28 -10 44 -10 17 1 33 -3 37 -9 4 -5
8 -1 8 10 0 12 3 16 8 9 9 -14 38 -24 46 -16 11 10 96 8 96 -2 0 -5 7 -1 16
10 8 10 12 13 8 5 -5 -11 -2 -13 14 -9 12 4 25 1 29 -4 4 -7 11 -4 20 7 7 11
13 13 13 6 0 -8 10 -11 30 -7 18 2 30 0 30 -7 0 -6 6 -3 13 8 11 14 16 15 22
5 6 -9 4 -11 -5 -5 -9 5 -11 4 -6 -4 4 -6 13 -8 19 -4 16 10 138 11 159 1 11
-5 18 -3 22 8 4 11 10 13 19 7 6 -5 32 -9 57 -8 25 0 52 -3 62 -7 11 -5 18 -2
22 8 4 11 10 13 19 7 6 -5 32 -9 57 -8 25 0 55 -3 67 -7 14 -4 25 -3 29 4 5 7
3 8 -6 3 -9 -5 -11 -4 -6 4 5 7 12 9 19 3 7 -5 35 -8 64 -7 32 1 50 -2 46 -8
-4 -6 -1 -7 7 -2 21 13 160 13 160 1 0 -6 4 -5 9 2 11 17 21 17 32 0 5 -7 9
-8 9 -2 0 7 21 10 58 9 31 -2 65 1 74 6 10 5 19 5 22 0 3 -5 22 -8 41 -6 19 1
35 -3 35 -8 0 -6 7 -2 16 9 8 10 13 13 9 7 -4 -9 1 -13 15 -13 12 0 18 4 15
10 -3 6 1 7 9 4 9 -3 13 -11 9 -18 -3 -6 4 -2 17 9 13 11 20 14 16 8 -5 -9 0
-13 14 -13 12 0 19 4 16 8 -3 5 1 9 9 9 8 0 11 -5 8 -10 -4 -6 0 -8 10 -4 9 3
19 2 23 -4 4 -6 13 -4 24 6 17 15 19 15 29 -2 6 -10 11 -13 11 -7 0 6 12 10
28 9 15 -1 30 3 34 9 5 7 8 7 8 -2 0 -7 4 -10 10 -7 6 3 10 1 10 -5 0 -6 5 -8
12 -4 17 11 69 13 62 3 -3 -5 2 -6 10 -3 9 3 13 11 9 18 -4 8 -2 8 7 -1 7 -6
19 -9 28 -6 11 5 13 3 7 -7 -6 -10 -4 -11 6 -4 8 5 25 9 39 9 14 0 30 4 37 8
6 4 15 2 19 -4 5 -8 3 -9 -6 -4 -9 5 -11 4 -6 -4 4 -6 12 -8 18 -5 18 11 98
11 98 0 0 -5 7 -1 16 10 8 10 13 14 10 8 -3 -7 4 -14 15 -17 15 -4 19 -2 15 9
-4 10 -2 12 6 8 19 -12 82 -13 95 -2 9 7 15 6 19 -6 3 -9 11 -13 18 -9 16 10
68 10 90 0 15 -8 18 -6 13 7 -5 12 -3 15 5 10 18 -11 82 -13 95 -3 7 7 14 6
19 -2 5 -8 3 -9 -6 -4 -9 5 -11 4 -6 -4 6 -9 11 -9 23 1 17 13 20 13 41 -4 6
-6 12 -6 12 -1 0 5 9 9 20 10 11 1 20 -4 20 -10 0 -8 3 -8 8 -2 9 13 192 14
192 1 0 -6 6 -2 13 9 11 14 16 15 22 5 6 -9 4 -11 -5 -5 -9 5 -11 4 -6 -4 5
-7 12 -9 19 -3 7 5 33 8 60 6 30 -1 47 2 47 10 0 6 4 5 9 -3 5 -8 16 -11 26
-7 10 3 25 1 33 -6 13 -11 14 -11 8 0 -6 10 1 12 34 7 33 -5 40 -3 34 7 -6 10
-4 10 7 3 17 -12 39 -13 58 -1 9 6 12 5 8 -1 -4 -6 0 -13 8 -17 8 -3 17 0 21
6 5 7 2 8 -6 3 -9 -5 -11 -4 -6 4 4 6 12 9 17 5 16 -10 69 -11 69 -1 0 4 6 5
12 1 17 -11 118 -12 111 -1 -3 5 2 7 10 5 9 -2 15 1 14 7 -1 5 -5 9 -9 8 -5
-2 -8 1 -8 6 0 5 -10 7 -22 3 -12 -3 -19 -1 -15 4 3 5 -3 10 -13 10 -10 0 -16
-4 -14 -8 8 -12 -11 -9 -24 4 -9 9 -12 9 -12 0 0 -10 -5 -10 -20 -2 -19 10
-26 60 -8 60 4 0 8 5 8 11 0 5 -6 7 -12 4 -7 -4 -6 -1 2 7 9 7 14 21 12 31 -2
9 2 17 10 17 10 0 9 3 -2 10 -8 5 -10 10 -5 10 6 0 12 8 13 18 3 31 7 47 16
60 4 7 5 16 2 19 -3 3 2 12 12 20 9 8 11 12 5 8 -8 -4 -13 0 -13 9 0 9 4 16 9
16 6 0 8 9 6 20 -2 11 0 22 5 25 5 3 6 13 3 21 -3 9 0 20 8 25 12 7 12 9 0 9
-11 0 -11 3 -1 15 7 8 10 22 6 30 -3 8 0 15 7 15 8 0 6 4 -3 10 -9 6 -11 10
-3 10 7 0 10 6 7 14 -3 8 -1 17 5 21 6 3 11 11 11 16 0 6 -6 7 -12 3 -10 -6
-10 -4 -2 7 6 8 12 32 13 55 3 56 5 67 15 83 6 10 5 12 -2 7 -7 -4 -12 -2 -12
3 0 6 5 11 11 11 8 0 7 6 -2 17 -10 11 -10 14 -1 9 6 -4 12 -2 12 3 0 6 -6 11
-12 11 -10 0 -10 2 -1 8 13 8 12 29 -1 50 -4 7 -5 16 -2 19 3 4 6 1 6 -5 0 -7
4 -12 10 -12 6 0 6 9 0 25 -6 16 -6 25 1 25 6 0 6 7 -1 20 -8 15 -8 20 1 20 8
0 8 4 1 13 -5 6 -6 21 -2 32 4 11 4 32 -1 48 -5 16 -4 27 2 27 6 0 7 5 4 10
-11 18 -11 119 0 112 5 -3 3 3 -6 14 -17 21 -18 32 -6 52 5 7 4 12 -2 12 -6 0
-11 5 -11 11 0 5 4 8 8 5 5 -3 9 1 9 9 0 8 -4 15 -7 15 -4 0 -8 10 -8 23 -2
45 -10 95 -17 108 -5 8 -4 10 3 5 7 -4 12 -2 12 3 0 6 -5 11 -11 11 -8 0 -7 5
1 16 8 8 9 14 4 13 -21 -4 -28 2 -14 11 11 7 11 10 2 10 -7 0 -10 4 -7 10 3 5
0 20 -6 32 -11 21 -11 22 5 9 14 -12 16 -12 10 3 -3 9 -10 16 -14 16 -5 0 -7
11 -5 25 1 14 -2 28 -6 31 -5 3 -4 14 1 25 6 11 15 17 21 14 5 -4 7 -11 4 -16
-3 -5 1 -6 9 -3 9 3 16 2 16 -3 0 -5 6 -10 14 -10 9 0 13 11 11 36 -1 20 -4
38 -5 41 -1 3 -2 8 -1 13 0 4 -7 7 -17 7 -14 0 -15 2 -2 10 12 8 10 10 -10 10
-18 0 -21 3 -11 9 11 7 9 10 -8 16 -11 3 -21 14 -22 23 0 11 -2 13 -6 4 -4 -9
-10 -7 -23 8 -10 12 -21 20 -23 18 -3 -2 -9 1 -14 6 -5 5 -3 6 5 2 14 -8 17
10 2 19 -5 3 -6 13 -3 22 5 12 2 15 -8 11 -12 -5 -14 2 -11 28 3 23 0 34 -9
34 -7 0 -9 3 -6 7 4 3 0 17 -9 31 -8 13 -13 29 -11 37 3 7 1 17 -4 22 -7 7 -5
16 5 26 9 9 16 20 16 26 0 6 5 11 11 11 6 0 8 7 5 15 -3 9 1 18 10 22 8 3 13
12 10 19 -3 8 -1 14 5 14 6 0 7 5 3 12 -4 7 -7 29 -7 50 0 21 -3 35 -8 32 -5
-3 -9 4 -9 15 0 11 -5 23 -11 26 -6 4 -8 14 -5 22 3 8 1 11 -4 8 -5 -3 -21 6
-34 20 -14 15 -32 28 -41 29 -9 1 -20 8 -24 15 -5 7 -11 12 -15 12 -19 -3 -26
0 -26 10 0 6 7 9 15 6 8 -4 17 -2 21 4 4 6 15 4 30 -5 13 -9 27 -16 31 -16 4
0 1 5 -7 10 -9 6 -10 10 -3 10 7 0 17 -9 23 -21 6 -11 16 -19 22 -17 12 4 68
-45 68 -60 0 -6 10 -18 23 -27 12 -8 21 -18 20 -20 -6 -11 -2 -25 7 -25 6 0
10 8 10 18 0 10 3 22 8 26 12 12 11 80 -2 95 -8 11 -8 13 1 8 6 -4 14 -3 18 3
3 5 2 10 -3 10 -6 0 -8 9 -5 20 3 11 0 20 -6 20 -6 0 -11 13 -11 29 0 16 -7
36 -15 44 -8 8 -11 17 -8 21 4 3 2 6 -4 6 -13 0 -53 35 -53 47 0 5 -6 10 -12
11 -7 0 -29 3 -48 7 -63 12 -85 12 -99 1 -11 -8 -13 -8 -7 2 4 6 3 12 -3 12
-5 0 -12 -4 -16 -10 -3 -5 -12 -7 -20 -3 -8 3 -15 1 -15 -3 0 -5 -15 -9 -34
-9 -24 0 -31 3 -25 11 5 6 7 14 4 17 -3 4 -2 5 2 2 3 -3 11 -1 17 4 16 13 116
41 116 33 0 -4 5 0 10 8 6 10 10 11 10 3 0 -13 26 -13 47 0 6 4 15 2 18 -4 4
-5 13 -8 21 -5 7 3 16 1 19 -4 3 -5 12 -7 20 -3 8 3 15 1 15 -4 0 -5 10 -10
22 -10 13 -1 24 -7 26 -13 3 -7 8 -7 19 1 11 10 14 10 11 -2 -2 -8 3 -13 10
-11 6 1 12 -3 12 -8 0 -6 6 -10 14 -8 8 2 24 -8 35 -21 13 -15 21 -19 21 -10
0 12 2 12 9 0 12 -19 38 -22 38 -5 0 8 -4 14 -9 14 -4 0 -8 5 -8 11 0 5 6 7
13 3 6 -4 3 2 -7 14 -11 12 -14 22 -8 22 6 0 9 7 6 15 -4 8 -11 12 -17 8 -6
-3 -7 -1 -3 6 4 6 -4 35 -19 63 -30 57 -49 80 -59 71 -3 -4 -6 1 -6 10 0 15
-11 22 -32 18 -5 0 -8 6 -8 15 0 8 -4 13 -9 9 -5 -3 -16 1 -24 9 -8 8 -17 12
-21 9 -3 -4 -6 -1 -6 7 0 9 -3 10 -13 1 -8 -6 -17 -8 -21 -4 -10 10 -37 15
-76 12 -19 -1 -43 -2 -52 -2 -10 -1 -18 -5 -18 -9 0 -4 -7 -4 -17 -1 -10 4
-14 2 -10 -4 4 -6 0 -14 -9 -17 -8 -3 -13 -2 -10 2 3 5 -1 9 -9 9 -8 0 -14 -3
-13 -6 2 -22 -4 -30 -19 -24 -11 4 -14 3 -9 -5 6 -11 -5 -17 -26 -13 -5 0 -8
-6 -8 -14 0 -8 -7 -15 -15 -15 -8 0 -17 -11 -21 -25 -3 -14 -10 -25 -16 -25
-5 0 -6 6 -2 13 4 6 4 9 -1 5 -4 -4 -13 -17 -19 -29 -15 -29 -31 -25 -33 9 0
15 -2 32 -3 37 -1 6 -2 18 -1 28 1 9 -2 17 -6 17 -5 0 -10 19 -12 42 -1 24 -8
49 -15 58 -7 8 -11 21 -8 29 3 8 0 11 -7 7 -7 -5 -11 1 -11 14 0 12 -4 18 -10
15 -6 -3 -7 1 -4 9 4 11 0 16 -11 16 -9 0 -13 5 -10 10 3 6 1 10 -5 10 -6 0
-8 5 -5 10 3 6 -1 10 -10 10 -9 0 -13 4 -10 10 4 6 -1 7 -11 3 -10 -4 -15 -2
-11 3 3 6 -3 16 -15 23 -16 10 -19 10 -12 -1 6 -10 5 -11 -7 -1 -13 11 -42 19
-72 22 -5 1 -5 7 -1 14 5 9 4 9 -6 0 -10 -9 -18 -9 -34 -1 -20 10 -20 10 -6
-7 14 -17 13 -17 -5 -7 -15 7 -26 7 -39 0 -16 -9 -18 -8 -13 5 4 11 2 14 -9
10 -9 -3 -14 1 -14 12 0 9 -5 13 -10 10 -6 -3 -13 1 -16 9 -3 9 -12 16 -20 16
-8 0 -13 3 -13 8 3 19 -2 33 -10 28 -10 -7 -77 53 -74 65 2 5 -4 6 -13 2 -10
-4 -17 2 -21 16 -3 11 -9 18 -14 15 -5 -3 -9 0 -9 7 0 7 -3 10 -6 6 -3 -3 -17
5 -31 19 -13 13 -29 22 -34 18 -5 -3 -9 -2 -8 3 5 27 -1 35 -17 23 -8 -8 -14
-9 -13 -4 3 18 -1 37 -8 31 -3 -4 -12 1 -20 11 -8 9 -11 11 -7 3 5 -9 3 -12
-4 -7 -7 4 -12 14 -12 23 0 9 -3 13 -7 10 -3 -4 -15 1 -26 10 -12 11 -17 12
-12 4 5 -10 4 -12 -3 -7 -7 4 -12 14 -12 22 0 8 -5 12 -10 9 -6 -3 -13 1 -16
9 -3 9 -10 13 -15 11 -4 -3 -17 3 -28 14 -11 11 -22 17 -25 14 -3 -4 -6 -1 -6
5 0 7 -3 11 -7 11 -21 -3 -33 2 -33 15 0 9 -7 13 -20 11 -15 -3 -20 2 -21 18
0 12 -3 17 -5 10 -7 -16 -34 -4 -34 15 0 12 -3 13 -11 5 -9 -9 -17 -6 -31 10
-11 12 -16 15 -12 7 4 -8 -6 -3 -22 11 -16 15 -37 25 -46 24 -11 -2 -18 3 -18
11 0 9 -4 12 -10 9 -5 -3 -20 1 -33 10 -13 8 -27 12 -30 8 -4 -3 -7 1 -7 10 0
9 -5 17 -11 17 -5 0 -7 -4 -4 -10 3 -5 0 -7 -8 -4 -8 3 -19 15 -25 27 -10 21
-11 21 -12 2 -1 -19 -1 -19 -14 -2 -8 10 -23 19 -35 20 -12 1 -21 5 -21 10 0
5 -7 7 -15 3 -10 -3 -15 1 -15 12 0 15 -2 15 -10 2 -7 -11 -10 -11 -10 -2 0 7
-4 10 -10 7 -5 -3 -10 -2 -10 4 0 6 -7 7 -17 4 -10 -4 -14 -2 -10 4 4 6 -1 10
-11 10 -35 0 -43 3 -36 14 4 8 0 8 -15 0 -17 -10 -22 -9 -27 3 -3 8 -14 13
-25 11 -10 -2 -19 1 -19 7 0 6 -11 8 -25 6 -13 -3 -22 -2 -20 2 3 5 -2 11 -11
14 -8 3 -12 2 -9 -4 3 -6 -1 -7 -9 -4 -9 3 -13 11 -10 16 4 6 -2 8 -15 3 -11
-3 -21 -2 -21 3 0 6 -7 13 -16 16 -8 3 -12 2 -9 -4 9 -14 -7 -12 -30 3 -11 7
-35 13 -53 13 -22 -1 -31 3 -27 12 3 10 0 10 -15 2 -16 -8 -24 -7 -36 5 -18
18 -28 20 -18 3 5 -8 2 -9 -12 -3 -10 4 -29 8 -41 8 -13 1 -23 5 -23 10 0 5
-6 5 -13 -2 -10 -8 -17 -7 -25 1 -7 7 -12 9 -12 5 0 -4 -15 0 -32 9 -32 16
-32 16 -18 -1 14 -17 14 -17 -6 -7 -12 6 -24 8 -28 5 -3 -3 -6 -1 -6 4 0 13
-18 12 -39 -1 -11 -7 -13 -5 -8 8 4 11 3 15 -4 10 -17 -10 -79 -12 -72 -1 3 5
-10 7 -31 4 -20 -3 -39 -1 -42 4 -3 5 -13 5 -23 -1 -12 -6 -22 -5 -29 2 -8 8
-12 8 -12 1 0 -13 -60 -11 -60 2 0 7 -3 7 -8 0 -8 -11 -42 -16 -42 -6 0 8 -48
7 -57 -2 -3 -4 -12 -2 -20 4 -9 9 -13 8 -13 0 0 -6 -5 -11 -11 -11 -5 0 -8 4
-4 9 3 6 -6 6 -24 1 -17 -5 -33 -4 -39 2 -6 6 -12 6 -16 -1z m-2826 -3985 c0
-2 -7 -7 -16 -10 -8 -3 -12 -2 -9 4 6 10 25 14 25 6z m6010 -16 c-8 -5 -19
-10 -25 -10 -5 0 -3 5 5 10 8 5 20 10 25 10 6 0 3 -5 -5 -10z"/>
<path d="M3096 7502 c-3 -5 1 -9 9 -9 8 0 12 4 9 9 -3 4 -7 8 -9 8 -2 0 -6 -4
-9 -8z"/>
<path d="M3399 7183 c-13 -16 -12 -17 4 -4 9 7 17 15 17 17 0 8 -8 3 -21 -13z"/>
<path d="M1960 5866 c0 -2 6 -9 13 -15 10 -8 14 -7 14 4 0 8 -6 15 -14 15 -7
0 -13 -2 -13 -4z"/>
<path d="M230 3538 c0 -6 7 -7 16 -4 9 3 12 2 9 -5 -4 -6 -14 -7 -24 -3 -22
10 -111 11 -105 2 3 -4 1 -8 -4 -8 -6 0 -9 -16 -8 -35 1 -19 -2 -35 -7 -35 -4
0 -5 -5 -1 -12 9 -15 11 -78 2 -78 -4 0 -3 -13 2 -30 5 -18 5 -30 -1 -30 -5 0
-9 -5 -9 -11 0 -5 4 -8 9 -5 5 4 7 -3 4 -14 -5 -17 -8 -18 -21 -8 -11 9 -10 4
3 -14 18 -25 44 -41 30 -18 -3 6 1 7 9 4 9 -3 13 -11 10 -16 -4 -6 3 -5 15 2
16 8 26 8 35 1 7 -6 16 -8 19 -5 3 4 23 7 44 8 21 1 44 5 50 9 9 6 11 3 7 -7
-3 -9 -1 -16 5 -16 6 0 11 6 11 13 0 7 4 6 10 -4 12 -20 18 -309 7 -309 -5 0
-5 -5 -1 -11 9 -15 9 -103 0 -118 -4 -6 -4 -11 1 -11 4 0 8 -13 8 -30 0 -16
-4 -30 -8 -30 -5 0 -5 -5 -2 -10 6 -10 9 -82 5 -105 -1 -5 -1 -23 0 -39 1 -19
-2 -26 -10 -21 -7 5 -7 0 2 -14 13 -22 38 -36 38 -22 0 4 10 7 23 6 13 -2 21
-8 19 -16 -2 -9 3 -7 16 5 19 17 21 17 31 -1 6 -11 11 -13 11 -5 0 7 4 11 9 7
5 -3 12 -1 16 4 5 10 36 8 54 -4 5 -3 12 -1 16 5 4 6 10 8 15 5 5 -3 11 -1 14
4 4 5 1 13 -5 17 -8 5 -9 3 -4 -7 5 -8 4 -11 0 -6 -5 4 -9 18 -10 31 0 21 2
23 15 13 9 -7 8 -3 -3 10 -11 12 -14 24 -9 27 9 5 6 65 -4 75 -2 2 1 12 6 22
7 12 6 19 -3 23 -9 5 -9 7 1 12 6 3 9 10 6 16 -8 13 -8 183 0 196 3 6 -2 13
-11 15 -17 4 -17 5 0 6 15 1 16 5 7 21 -6 11 -7 20 -1 20 5 0 6 14 1 35 -4 19
-5 35 -1 35 10 0 7 64 -4 72 -6 5 -5 8 2 8 7 0 10 7 7 15 -4 8 -3 27 1 42 5
21 8 24 16 12 5 -8 9 -9 9 -2 0 12 17 12 37 0 6 -4 14 -3 18 3 4 6 11 8 16 5
5 -4 9 0 9 7 0 10 3 9 10 -2 5 -8 12 -11 15 -8 4 4 18 3 31 -2 14 -6 26 -6 29
0 3 5 15 7 26 5 15 -3 19 0 15 10 -3 8 -1 15 3 15 5 0 7 9 4 20 -3 11 1 28 8
38 12 15 12 15 -1 5 -13 -10 -15 -3 -14 52 1 34 5 69 9 76 6 9 3 11 -10 5 -14
-5 -16 -4 -6 7 28 35 -14 106 -52 85 -10 -5 -23 -7 -30 -5 -7 2 -20 0 -29 -4
-12 -7 -20 -4 -27 8 -10 17 -10 17 -11 1 0 -10 -5 -18 -11 -18 -5 0 -7 5 -4
10 8 14 -28 13 -42 -1 -8 -8 -13 -8 -17 0 -5 8 -13 8 -27 1 -12 -7 -19 -7 -19
-1 0 6 -11 6 -29 1 -20 -6 -35 -4 -47 5 -17 12 -48 10 -40 -4 2 -3 -7 -6 -20
-6 -15 0 -24 6 -24 15 -1 12 -3 11 -11 -3 -6 -10 -15 -14 -22 -10 -6 4 -27 7
-47 6 -19 0 -39 2 -45 5 -17 11 -35 11 -35 0z m560 -8 c0 -5 -5 -10 -11 -10
-5 0 -7 5 -4 10 3 6 8 10 11 10 2 0 4 -4 4 -10z"/>
<path d="M1100 3535 c-1 -11 -4 -14 -7 -7 -2 6 -9 12 -14 12 -6 0 -7 -5 -3
-11 4 -8 1 -8 -12 -1 -22 11 -100 9 -111 -3 -5 -4 -2 -5 5 -1 16 9 16 -6 0
-22 -10 -10 -10 -15 1 -21 11 -7 11 -9 0 -14 -12 -4 -11 -7 1 -16 12 -8 12
-11 1 -11 -10 0 -11 -3 -2 -14 9 -11 9 -16 0 -21 -8 -6 -7 -10 2 -16 10 -6 11
-9 2 -9 -7 0 -13 -5 -13 -11 0 -5 6 -7 13 -3 10 6 10 4 0 -7 -7 -7 -13 -17
-13 -22 0 -4 6 -5 13 -1 8 5 8 2 -2 -9 -11 -14 -11 -17 0 -17 12 0 12 -2 0 -9
-11 -7 -11 -9 0 -14 10 -4 10 -6 2 -6 -7 -1 -13 -8 -13 -17 0 -9 5 -12 13 -8
8 5 8 2 -2 -9 -11 -14 -11 -17 0 -17 11 0 11 -2 -1 -10 -13 -9 -13 -10 0 -10
11 0 12 -2 3 -8 -13 -8 -12 -29 1 -51 6 -10 5 -12 -2 -7 -7 4 -12 3 -12 -3 0
-5 5 -13 11 -16 7 -5 4 -14 -7 -26 -17 -19 -17 -20 2 -13 16 7 17 6 6 -8 -10
-13 -10 -17 0 -21 10 -4 10 -6 -1 -6 -10 -1 -11 -4 -2 -15 8 -10 9 -16 1 -21
-15 -9 -13 -28 3 -19 6 4 3 -3 -7 -15 -20 -22 -20 -22 0 -15 16 7 17 6 6 -8
-10 -13 -10 -17 0 -21 10 -4 10 -6 -1 -6 -11 -1 -11 -4 0 -18 10 -11 10 -14 2
-9 -17 9 -17 -6 0 -23 9 -11 9 -13 0 -7 -16 9 -17 -6 -2 -21 8 -8 8 -13 0 -17
-6 -4 -11 -12 -11 -17 0 -6 6 -7 13 -3 8 5 8 2 -2 -9 -11 -14 -11 -17 0 -17 8
0 6 -6 -7 -16 -10 -8 -14 -13 -7 -10 6 4 14 2 18 -4 3 -5 1 -10 -6 -10 -9 0
-9 -3 0 -14 9 -11 9 -16 0 -21 -8 -6 -7 -10 2 -16 12 -7 12 -9 0 -9 -10 0 -11
-3 -2 -14 8 -10 9 -16 1 -21 -5 -3 -10 -11 -10 -16 0 -6 6 -7 13 -3 7 5 7 1
-2 -10 -12 -14 -12 -19 -2 -26 11 -6 11 -9 0 -13 -12 -4 -11 -7 1 -16 8 -6 10
-11 5 -11 -6 0 -12 -11 -13 -25 -1 -14 3 -25 9 -25 5 0 7 -5 3 -11 -4 -8 -1
-8 12 -1 24 13 36 13 52 0 8 -8 12 -7 12 3 0 9 3 10 8 4 8 -12 52 -15 52 -4 0
5 11 5 23 0 13 -5 30 -5 38 -1 8 6 16 4 21 -3 6 -9 8 -9 8 1 0 7 4 11 9 8 12
-8 8 47 -4 56 -6 5 -4 8 5 8 13 0 13 1 0 10 -12 8 -12 10 -1 10 11 0 11 3 0
17 -10 11 -10 14 -1 9 6 -4 12 -3 12 3 0 5 -5 13 -12 17 -7 5 -5 11 7 21 15
10 16 13 4 13 -16 0 -19 26 -6 47 4 6 1 14 -5 16 -10 4 -9 6 1 6 11 1 11 4 0
18 -12 14 -12 16 0 8 11 -6 13 -2 7 21 -5 21 -4 25 4 14 8 -13 10 -12 10 5 0
15 2 17 9 6 5 -8 16 -11 28 -7 27 9 55 -3 49 -20 -3 -8 1 -14 9 -14 8 0 15 -9
15 -20 0 -11 5 -20 11 -20 6 0 9 -7 6 -15 -4 -8 4 -22 16 -32 21 -18 29 -34
30 -60 0 -7 4 -10 9 -7 4 3 8 -2 8 -10 0 -9 5 -16 10 -16 6 0 10 -7 10 -15 0
-8 5 -15 11 -15 5 0 8 -4 4 -9 -3 -5 -1 -12 5 -16 6 -4 8 -11 5 -16 -6 -9 5
-11 58 -12 15 0 27 -4 27 -9 0 -5 10 -4 21 3 16 8 20 8 14 -1 -6 -9 -3 -9 12
-2 11 6 25 7 33 2 8 -5 21 -5 31 1 12 6 19 5 22 -4 3 -9 7 -9 19 1 13 10 17
10 21 0 4 -9 6 -10 6 -1 1 7 7 10 14 7 9 -3 13 4 13 20 0 14 -3 23 -7 20 -4
-2 -9 5 -12 16 -3 11 -2 18 3 15 4 -3 11 2 14 11 3 8 2 12 -4 9 -6 -3 -10 4
-10 17 0 19 -2 20 -11 8 -9 -12 -10 -11 -6 8 3 12 1 22 -5 22 -6 0 -7 7 -4 16
3 8 2 13 -3 10 -5 -3 -15 2 -22 11 -12 14 -12 16 0 8 9 -5 5 5 -7 22 -12 17
-22 34 -22 38 0 4 -8 14 -17 22 -10 8 -13 12 -6 9 8 -5 8 0 0 19 -7 14 -18 25
-26 25 -8 0 -11 3 -8 7 4 3 1 13 -6 21 -10 13 -9 14 3 7 10 -6 9 -2 -3 12 -14
16 -15 23 -6 29 8 4 10 3 5 -4 -4 -7 -3 -12 3 -12 5 0 13 9 16 20 4 11 10 18
15 15 7 -4 23 31 21 47 0 4 5 5 13 2 9 -3 13 3 13 18 1 43 3 49 16 42 7 -5 6
0 -3 11 -9 11 -10 16 -2 11 6 -4 12 -3 12 3 0 5 -5 13 -12 17 -8 5 -6 11 6 19
15 12 15 13 -1 19 -15 6 -15 8 -3 16 12 8 13 13 3 29 -10 16 -10 19 0 16 17
-7 14 49 -4 71 -9 12 -10 15 -1 10 6 -4 12 -2 12 3 0 6 -6 11 -12 11 -9 0 -8
4 2 10 8 5 10 10 4 10 -6 0 -11 6 -12 13 -3 33 -11 52 -22 49 -6 -1 -9 2 -5 8
3 5 0 10 -7 10 -9 0 -9 3 2 10 13 8 12 10 -4 10 -12 0 -16 5 -12 15 5 14 -5
20 -27 16 -5 -1 -7 2 -5 6 3 5 -8 21 -24 36 -15 15 -28 23 -28 16 0 -6 -9 -1
-21 12 -11 13 -17 17 -13 9 6 -12 4 -12 -12 1 -27 23 -54 31 -54 16 0 -8 -3
-8 -9 2 -5 8 -19 12 -35 9 -14 -3 -34 0 -43 7 -17 12 -47 9 -39 -4 2 -3 -7 -6
-20 -6 -14 0 -24 6 -24 14 0 11 -4 10 -13 -4 -10 -12 -16 -15 -21 -6 -5 8 -13
8 -27 1 -11 -6 -19 -7 -19 -1 0 5 -14 6 -35 1 -28 -6 -37 -4 -45 9 -8 14 -10
14 -10 -4z m160 -319 c0 5 11 10 25 10 14 0 25 -4 25 -9 0 -4 5 -5 12 -1 16
10 78 12 78 2 0 -4 5 -8 11 -8 33 0 51 -74 18 -75 -8 -1 -13 -7 -11 -15 2 -11
0 -11 -11 -1 -12 9 -16 8 -20 -3 -4 -9 -16 -12 -39 -10 -42 6 -46 6 -90 3 -20
-1 -44 4 -54 11 -15 13 -14 15 3 21 17 7 17 8 0 8 -15 1 -16 5 -7 21 8 14 8
20 0 20 -7 0 -6 5 2 13 20 20 42 26 50 13 5 -7 8 -7 8 0z"/>
<path d="M2204 3535 c-4 -11 -11 -12 -24 -5 -20 11 -47 -11 -35 -30 3 -5 1
-10 -4 -10 -6 0 -11 -7 -11 -15 0 -8 -6 -15 -12 -15 -9 0 -8 -4 2 -10 10 -6
11 -10 3 -10 -7 0 -13 -9 -13 -19 0 -11 -5 -23 -10 -26 -6 -4 -8 -10 -5 -15 3
-5 1 -11 -4 -15 -6 -3 -8 -12 -4 -20 3 -8 0 -15 -6 -15 -6 0 -11 -9 -11 -20 0
-11 -4 -20 -10 -20 -5 0 -7 -7 -4 -15 4 -8 1 -15 -5 -15 -6 0 -8 -7 -5 -15 4
-8 2 -15 -4 -15 -5 0 -9 -12 -9 -27 0 -15 -6 -29 -12 -31 -6 -2 -11 -13 -11
-23 0 -14 -4 -18 -12 -13 -9 5 -9 2 1 -9 10 -13 10 -17 1 -17 -8 0 -11 -9 -8
-24 4 -18 1 -23 -10 -18 -12 4 -14 -1 -10 -25 3 -23 1 -30 -9 -26 -9 4 -11 0
-7 -11 4 -10 1 -16 -7 -16 -7 0 -9 -3 -6 -7 4 -3 1 -13 -6 -21 -9 -13 -9 -14
0 -8 9 5 11 2 7 -8 -3 -9 -10 -16 -16 -16 -5 0 -6 -4 -3 -10 3 -5 1 -10 -6
-10 -9 0 -9 -3 0 -14 10 -12 8 -17 -10 -26 -16 -9 -18 -14 -9 -20 9 -6 8 -10
-5 -17 -12 -7 -14 -12 -6 -17 8 -5 7 -12 -4 -22 -8 -9 -15 -24 -15 -34 0 -10
-5 -22 -10 -25 -6 -4 -8 -11 -5 -16 4 -5 1 -9 -6 -9 -7 0 -9 -3 -6 -7 4 -3 2
-12 -4 -20 -6 -7 -8 -13 -4 -13 5 0 0 -10 -11 -22 -10 -12 -14 -18 -7 -15 8 5
8 1 0 -18 -7 -14 -16 -25 -20 -25 -5 0 -1 -7 7 -16 14 -14 14 -17 1 -31 -14
-14 -14 -17 2 -29 17 -13 17 -14 -2 -7 -11 3 -17 3 -13 -1 9 -10 88 -13 81 -3
-5 9 11 9 21 0 9 -9 46 -11 46 -3 0 9 32 6 48 -4 7 -4 19 -2 27 4 12 10 15 10
15 -1 0 -11 2 -11 10 1 5 8 10 11 10 7 0 -4 6 -2 14 5 8 7 12 21 10 31 -1 10
1 15 7 12 8 -5 14 15 10 38 0 4 5 7 12 7 8 0 7 3 -3 10 -12 8 -12 10 3 16 9 3
17 10 17 16 0 5 -5 6 -12 2 -7 -5 -8 -3 -4 5 5 7 14 10 22 7 8 -3 14 -1 14 3
0 5 8 8 18 7 9 -2 20 2 24 8 5 7 8 4 8 -7 0 -12 4 -15 12 -11 21 13 59 14 51
1 -5 -9 -3 -9 8 0 12 10 18 10 29 0 7 -6 10 -7 7 -2 -3 7 13 11 44 11 27 0 49
-4 49 -9 0 -5 5 -5 13 1 9 7 19 2 38 -19 15 -16 22 -29 17 -29 -5 0 -8 -6 -5
-12 2 -7 10 -12 17 -10 10 2 11 0 2 -11 -9 -11 -7 -18 8 -35 14 -14 16 -22 7
-25 -7 -3 -4 -6 6 -6 9 -1 17 -5 17 -9 0 -5 7 -9 15 -9 8 0 15 4 15 9 0 5 10
4 21 -3 17 -9 20 -8 13 3 -6 11 -5 11 8 0 13 -10 17 -10 21 0 4 10 6 10 6 -1
1 -11 4 -11 16 -1 12 10 15 10 15 0 0 -10 3 -10 15 0 12 10 15 10 15 -1 0 -10
3 -10 12 -1 9 9 16 8 30 -5 16 -14 18 -15 13 -1 -5 12 0 15 19 13 18 -2 23 1
19 11 -3 8 -10 14 -17 14 -6 0 -4 5 4 10 8 5 10 10 4 10 -7 0 -11 15 -10 38 2
20 -3 43 -10 50 -7 7 -10 20 -7 29 4 11 3 14 -5 9 -8 -5 -12 1 -12 18 0 14 -4
26 -8 26 -5 0 -8 10 -7 23 3 28 -4 47 -17 47 -6 0 -4 -8 3 -17 13 -16 12 -17
-3 -5 -13 11 -15 19 -7 38 6 19 6 23 -3 18 -8 -5 -9 -2 -5 10 4 9 3 15 -2 12
-5 -3 -12 1 -15 10 -4 10 -2 13 7 8 9 -6 9 -5 0 8 -7 8 -9 19 -5 23 4 5 2 5
-4 2 -7 -4 -15 0 -18 9 -4 10 -2 13 7 8 9 -6 9 -5 0 8 -7 8 -10 18 -6 21 3 4
1 7 -5 7 -7 0 -11 3 -11 8 4 21 -2 32 -13 26 -8 -5 -7 0 2 11 9 11 10 16 3 11
-9 -5 -13 1 -13 18 0 14 -5 26 -11 26 -5 0 -8 4 -5 8 3 5 -1 21 -9 36 -10 18
-11 25 -2 21 7 -4 5 -1 -4 7 -9 7 -14 19 -12 26 3 6 0 12 -6 12 -6 0 -10 3
-10 8 4 24 -2 52 -11 47 -6 -4 -10 7 -10 24 0 17 -4 31 -8 31 -4 0 -8 9 -9 20
-1 11 -9 28 -18 37 -13 13 -14 18 -3 24 11 7 11 9 -1 9 -8 0 -11 6 -7 16 4 10
2 13 -6 8 -8 -5 -9 -2 -5 10 4 10 1 19 -9 23 -13 5 -13 7 -2 14 10 7 10 9 1 9
-7 0 -13 11 -13 25 0 14 -5 25 -11 25 -5 0 -8 4 -5 8 12 19 -15 35 -58 35 -26
0 -46 5 -46 11 0 6 -4 5 -9 -3 -5 -8 -16 -11 -25 -8 -9 4 -16 1 -16 -6 0 -8
-4 -6 -10 3 -6 9 -10 11 -10 3 0 -7 -7 -10 -15 -7 -8 4 -12 10 -9 15 3 5 3 9
-1 9 -3 0 -8 -7 -11 -15z m100 -528 c8 -13 7 -20 -4 -27 -12 -8 -12 -10 -1
-10 8 0 12 -3 8 -6 -3 -4 -21 3 -39 15 -18 11 -27 21 -20 21 7 0 11 4 8 9 -6
10 12 21 28 17 5 -1 14 -10 20 -19z"/>
<path d="M2646 3535 c-12 -12 -16 -13 -17 -3 0 7 -5 3 -12 -10 -8 -18 -8 -25
2 -32 9 -5 10 -10 3 -14 -6 -4 -8 -14 -5 -23 5 -12 3 -14 -8 -9 -8 4 -6 1 4
-7 12 -10 15 -17 7 -22 -7 -4 -8 -11 -2 -18 11 -15 37 -89 34 -99 -1 -5 3 -8
9 -8 5 0 8 -4 4 -9 -3 -5 -1 -12 4 -16 6 -3 8 -12 4 -20 -3 -9 1 -15 8 -15 11
0 11 -3 -1 -10 -12 -8 -12 -10 5 -10 17 0 17 -2 5 -10 -9 -6 -11 -10 -3 -10 7
0 10 -7 6 -17 -4 -11 -3 -14 5 -9 8 5 12 -1 12 -18 0 -14 5 -28 11 -31 6 -4 8
-13 5 -20 -3 -8 0 -15 6 -17 6 -2 12 -12 14 -21 1 -9 -2 -15 -7 -11 -5 3 -6
10 -3 16 4 7 2 8 -4 4 -9 -5 -4 -18 15 -44 16 -20 22 -32 15 -28 -10 6 -10 0
2 -22 12 -23 13 -32 3 -35 -7 -3 -5 -6 6 -6 12 -1 17 -9 17 -32 0 -17 4 -28
10 -24 6 3 7 -1 4 -9 -4 -10 -1 -16 7 -16 11 0 11 -3 -1 -10 -12 -8 -12 -10
-1 -10 8 0 12 -3 8 -6 -3 -4 1 -13 9 -21 8 -8 12 -19 8 -24 -3 -6 0 -17 8 -26
7 -10 8 -14 1 -10 -8 5 -8 1 0 -18 7 -14 16 -25 21 -25 5 0 3 -7 -4 -15 -9
-10 -9 -15 -1 -15 6 0 11 -12 11 -26 0 -14 4 -23 10 -19 6 3 10 -4 10 -17 0
-13 6 -30 13 -37 10 -11 9 -12 -3 -6 -9 5 -7 -1 5 -15 12 -14 14 -20 5 -15
-12 7 -13 6 -3 -7 7 -8 10 -17 7 -21 -3 -3 2 -4 13 -3 10 2 21 -2 25 -8 5 -7
8 -7 8 3 0 11 3 11 15 1 12 -10 15 -10 15 0 0 10 3 10 15 0 12 -10 15 -10 15
1 0 12 2 12 9 0 7 -11 9 -11 14 0 5 12 6 12 6 0 1 -11 4 -11 18 0 15 12 16 12
8 -1 -8 -13 -7 -13 8 -1 14 11 17 11 17 0 0 -10 3 -10 11 -2 9 9 19 8 41 -3
21 -11 28 -11 26 -2 -2 7 2 12 9 13 17 0 29 15 12 16 -8 0 -4 4 8 9 16 7 21
16 19 39 -1 17 2 31 7 31 4 0 5 5 2 10 -3 6 0 10 7 10 9 0 9 3 -2 10 -8 5 -10
10 -5 10 6 0 16 9 23 21 11 17 11 20 0 13 -10 -6 -10 -4 1 9 7 9 10 17 6 17
-4 0 -2 6 4 13 6 8 8 17 4 20 -3 4 -1 7 6 7 9 0 11 8 8 21 -3 12 0 22 9 26 8
3 14 9 14 15 0 5 -5 6 -11 3 -7 -5 -8 -1 -1 11 27 53 34 73 27 85 -5 7 -4 10
2 6 6 -4 14 0 17 9 4 10 2 13 -7 8 -9 -5 -9 -4 1 7 6 7 12 24 12 37 0 14 4 21
11 16 7 -4 9 2 7 17 -2 17 1 23 11 21 12 -3 12 -1 0 14 -11 14 -11 16 -1 10
10 -6 13 -3 11 10 -2 11 1 26 6 34 5 8 11 24 12 35 2 10 9 22 15 26 6 4 8 14
5 23 -4 9 -2 16 4 16 6 0 7 5 4 10 -3 6 0 10 7 10 9 0 9 3 -2 10 -11 7 -11 10
-2 10 7 0 10 5 7 10 -3 6 -1 10 6 10 6 0 9 8 6 20 -3 11 -1 20 5 20 5 0 6 5 3
10 -3 6 -2 10 4 10 5 0 8 9 6 20 -2 11 0 18 6 15 5 -4 9 3 9 14 0 31 2 35 19
49 14 11 14 12 0 7 -10 -4 -16 0 -16 9 0 8 4 13 8 11 3 -3 12 2 19 10 11 13
10 14 -5 8 -14 -5 -17 -3 -12 10 4 10 2 17 -5 17 -9 0 -9 3 0 12 15 15 16 31
0 22 -7 -5 -9 -2 -6 7 5 12 -3 15 -33 15 -21 -1 -39 -5 -39 -9 0 -4 -7 -4 -16
1 -9 5 -26 7 -38 5 -17 -4 -18 -3 -6 6 9 7 11 11 3 11 -7 0 -17 -8 -22 -17 -6
-11 -11 -13 -11 -5 0 10 -5 10 -21 1 -12 -6 -19 -7 -16 -2 3 5 -3 9 -13 9 -10
0 -17 -3 -14 -7 2 -4 -3 -12 -11 -19 -7 -6 -11 -19 -8 -27 4 -10 2 -14 -4 -10
-6 4 -14 0 -17 -9 -3 -8 -2 -12 4 -9 6 3 10 1 10 -4 0 -6 -4 -11 -9 -11 -5 0
-8 -8 -7 -17 0 -10 -4 -17 -10 -16 -6 1 -9 -10 -6 -29 3 -20 1 -29 -6 -24 -6
4 -9 -4 -7 -19 1 -14 -2 -25 -7 -25 -6 0 -7 -7 -4 -16 3 -8 2 -12 -4 -9 -6 3
-10 -5 -10 -18 0 -14 -6 -30 -14 -37 -8 -6 -12 -18 -9 -26 3 -8 -1 -22 -8 -31
-12 -14 -12 -16 1 -8 11 6 10 3 -3 -12 -9 -11 -14 -23 -11 -26 4 -4 1 -13 -6
-22 -7 -8 -14 -25 -15 -38 -4 -37 -5 -38 -14 -33 -4 3 -7 -6 -5 -19 1 -14 -3
-28 -8 -32 -7 -4 -8 -1 -3 7 5 9 4 11 -4 6 -8 -6 -9 -12 -2 -20 8 -9 7 -13 -3
-13 -8 0 -20 12 -26 26 -7 14 -17 34 -22 45 -7 13 -6 16 2 11 6 -4 4 7 -5 24
-9 17 -13 37 -9 43 4 6 3 8 -4 4 -6 -3 -13 -2 -17 4 -3 5 -1 10 6 10 8 0 9 3
0 13 -6 8 -8 17 -4 20 3 4 1 7 -5 7 -6 0 -9 9 -7 20 2 11 -1 23 -7 26 -7 5 -8
2 -3 -6 6 -9 4 -11 -4 -5 -9 5 -9 11 -3 17 7 7 6 18 -5 34 -8 13 -11 24 -7 24
5 0 4 4 -2 8 -7 4 -14 21 -15 37 -2 17 -7 32 -10 35 -4 3 -9 14 -11 25 -1 11
-7 23 -13 27 -6 5 -5 8 3 8 10 0 9 4 -2 16 -9 8 -14 20 -11 25 3 4 -1 20 -10
33 -9 14 -14 30 -11 35 4 6 -4 7 -23 1 -22 -6 -33 -4 -42 6 -8 10 -16 11 -31
3 -11 -6 -25 -8 -32 -6 -7 3 -19 1 -27 -3 -8 -6 -20 -3 -30 6 -15 13 -18 13
-33 -1z m24 -5 c0 -5 -5 -10 -11 -10 -5 0 -7 5 -4 10 3 6 8 10 11 10 2 0 4 -4
4 -10z m120 0 c0 -5 -5 -10 -11 -10 -5 0 -7 5 -4 10 3 6 8 10 11 10 2 0 4 -4
4 -10z"/>
<path d="M3652 3533 c-7 -10 -10 -13 -7 -7 3 7 -4 11 -19 10 -20 -1 -22 -4
-14 -20 7 -12 7 -16 0 -12 -6 3 -13 2 -17 -4 -3 -5 0 -10 7 -10 9 0 9 -3 -2
-10 -13 -9 -13 -10 0 -10 13 0 13 -1 0 -10 -12 -8 -12 -10 -1 -10 11 0 11 -3
0 -17 -8 -9 -9 -14 -3 -10 6 3 11 0 11 -8 0 -8 -4 -12 -9 -9 -11 7 -10 -3 3
-28 8 -15 8 -19 0 -14 -6 4 -11 3 -11 -3 0 -5 6 -12 13 -14 9 -4 8 -8 -3 -16
-13 -10 -13 -11 0 -11 12 0 13 -2 1 -9 -11 -7 -11 -9 0 -14 10 -4 10 -6 2 -6
-7 -1 -13 -6 -13 -12 0 -5 5 -7 11 -3 8 5 8 1 0 -14 -13 -24 -14 -35 -3 -28 4
2 8 -8 7 -24 0 -15 -3 -26 -7 -23 -5 2 -8 -1 -8 -6 0 -6 6 -11 13 -11 9 0 8
-3 -2 -9 -11 -7 -11 -9 0 -14 9 -3 7 -6 -6 -6 -16 -1 -17 -3 -6 -10 8 -5 15
-19 16 -30 1 -11 -2 -18 -7 -15 -4 3 -8 0 -8 -5 0 -6 6 -11 13 -11 9 0 8 -3
-2 -9 -9 -6 -10 -11 -2 -15 8 -5 8 -13 1 -26 -6 -10 -6 -21 -2 -24 10 -6 10
-46 -1 -63 -4 -6 -1 -14 5 -16 10 -4 9 -6 -1 -6 -11 -1 -11 -4 0 -18 10 -11
10 -14 2 -9 -7 4 -13 3 -13 -3 0 -5 6 -12 13 -14 9 -4 8 -6 -2 -6 -11 -1 -11
-4 -1 -16 10 -12 10 -15 -1 -15 -11 0 -11 -2 1 -10 13 -9 13 -10 0 -10 -13 0
-13 -1 0 -10 12 -8 12 -10 1 -10 -9 0 -10 -4 -4 -12 11 -15 11 -28 0 -45 -5
-8 -3 -13 4 -13 8 0 9 -4 0 -13 -8 -10 -7 -17 1 -25 9 -9 9 -12 0 -12 -7 0
-12 -5 -12 -11 0 -5 6 -7 13 -3 9 6 9 4 -1 -8 -10 -13 -10 -17 0 -21 10 -4 10
-6 1 -6 -7 -1 -13 -6 -13 -12 0 -5 4 -8 9 -4 6 3 8 -4 5 -17 -11 -46 -11 -78
-2 -78 5 0 6 -6 2 -12 -5 -9 -2 -9 9 1 14 11 17 11 17 0 0 -11 2 -11 10 1 7
11 10 11 10 2 0 -8 5 -10 13 -5 19 12 37 12 37 1 0 -7 5 -6 14 1 9 7 17 8 20
2 7 -10 25 -9 44 2 7 5 12 3 12 -3 0 -7 6 -8 19 -1 10 6 21 7 25 4 8 -9 91 -7
106 2 5 3 10 1 10 -6 0 -8 4 -8 15 1 9 7 15 8 15 2 0 -11 18 -11 38 1 7 5 12
3 12 -4 0 -8 4 -8 15 1 12 10 15 10 15 0 0 -10 3 -10 14 -1 8 7 17 8 20 3 5
-9 59 -8 75 3 6 3 11 2 11 -3 0 -13 24 -10 38 5 8 8 9 13 2 13 -8 0 -8 6 0 20
7 14 7 20 0 20 -5 0 -10 5 -10 11 0 5 4 8 8 5 5 -3 9 1 9 9 0 8 -4 12 -9 9
-12 -8 -10 10 3 23 8 8 8 13 0 17 -6 4 -11 12 -11 17 0 6 4 8 8 5 5 -3 8 8 8
25 0 22 -3 28 -14 24 -12 -4 -13 -3 -2 10 7 8 9 15 4 15 -4 0 -3 5 4 12 7 7
12 17 12 23 0 5 -5 3 -10 -5 -7 -12 -10 -8 -10 15 0 28 -3 31 -35 31 -19 0
-35 -5 -35 -11 0 -5 -5 -2 -11 8 -8 14 -14 16 -25 6 -8 -6 -14 -8 -14 -4 0 4
-6 3 -13 -3 -8 -7 -18 -7 -27 -2 -8 5 -22 4 -33 -2 -14 -7 -17 -7 -13 1 10 15
-7 14 -22 -1 -9 -9 -12 -9 -12 0 0 14 -42 12 -52 -3 -5 -6 -8 -6 -8 2 0 6 -9
9 -20 6 -15 -4 -20 0 -21 13 0 18 -1 17 -8 -1 -8 -19 -9 -18 -12 5 -2 14 2 31
11 38 11 10 11 11 1 6 -9 -4 -12 -3 -8 4 4 5 17 8 29 4 16 -4 19 -2 13 9 -6
11 -5 11 5 2 7 -6 19 -9 28 -6 11 5 13 3 7 -7 -6 -9 -4 -11 5 -5 6 4 28 10 47
12 27 4 33 2 28 -8 -5 -8 -4 -10 4 -5 19 12 82 15 75 4 -4 -6 2 -5 14 1 29 16
37 14 21 -6 -13 -16 -12 -16 10 -1 13 9 29 14 35 12 7 -3 13 2 13 10 0 8 -4
13 -9 10 -12 -8 -10 10 4 24 9 9 9 12 0 12 -7 0 -12 5 -12 11 0 5 4 8 8 5 5
-3 9 2 9 10 0 9 -6 13 -16 9 -11 -4 -10 -1 4 15 10 11 15 23 12 27 -4 3 -7 0
-7 -7 0 -7 -3 -10 -6 -7 -4 4 -1 13 6 22 10 12 10 15 0 15 -8 0 -10 8 -5 23
10 34 13 97 3 91 -4 -3 -8 4 -8 16 0 12 -4 19 -9 15 -5 -3 -13 0 -17 6 -5 8
-9 7 -14 -2 -7 -10 -11 -10 -24 0 -13 11 -16 11 -16 0 0 -10 -3 -10 -12 -1 -7
7 -17 8 -30 1 -13 -7 -18 -6 -18 3 0 8 -3 9 -8 3 -10 -14 -32 -17 -32 -4 0 8
-4 8 -14 0 -10 -8 -16 -9 -21 -1 -4 7 -12 7 -26 0 -13 -7 -19 -7 -19 0 0 5 -3
9 -7 9 -23 -4 -43 2 -43 13 0 6 3 9 6 5 4 -3 13 1 21 9 12 11 18 12 29 3 11
-9 14 -9 14 0 0 8 5 9 18 2 13 -7 23 -6 30 1 7 7 12 8 12 4 0 -5 7 -3 15 4 13
11 14 10 9 -4 -8 -20 0 -21 20 0 14 14 16 14 16 0 0 -12 5 -14 24 -6 16 6 28
5 36 -3 10 -9 11 -9 6 1 -4 6 -3 12 1 12 5 0 15 -6 22 -12 11 -11 12 -10 6 2
-8 13 -7 13 8 1 12 -9 17 -10 17 -2 0 7 4 10 9 7 28 -18 49 38 27 72 -4 7 -3
12 1 12 14 0 6 72 -9 81 -9 6 -6 9 12 10 17 0 20 3 10 7 -17 8 -20 33 -5 44 6
4 1 8 -10 8 -12 0 -16 3 -9 8 15 10 13 60 -4 67 -8 3 -10 0 -6 -8 6 -9 5 -9
-7 0 -9 7 -20 9 -29 3 -9 -5 -20 -5 -28 2 -15 13 -54 19 -47 8 3 -4 -16 -7
-41 -7 -24 0 -47 4 -50 8 -2 4 -11 6 -19 3 -8 -4 -13 -9 -11 -13 2 -3 -13 -6
-34 -6 -21 0 -36 3 -33 7 2 5 9 5 15 2 7 -4 8 -2 4 4 -8 13 -36 5 -36 -10 0
-5 -6 -6 -12 -1 -7 4 -21 6 -32 4 -12 -2 -16 1 -11 9 4 7 -4 5 -18 -4 -23 -16
-26 -16 -41 -1 -15 15 -16 15 -17 -2 0 -10 -3 -13 -6 -5 -2 6 -9 12 -14 12 -6
0 -7 -5 -3 -11 4 -7 -1 -7 -16 1 -15 8 -20 8 -16 1 4 -6 3 -11 -3 -11 -5 0
-11 7 -13 15 -2 13 -5 13 -16 -2z m458 -3 c0 -5 -5 -10 -11 -10 -5 0 -7 5 -4
10 3 6 8 10 11 10 2 0 4 -4 4 -10z m67 -415 c0 -8 -4 -12 -9 -9 -5 3 -6 10 -3
15 9 13 12 11 12 -6z"/>
<path d="M4436 3535 c-9 -9 -17 -11 -21 -5 -10 16 -42 -6 -40 -27 0 -10 5 -25
10 -32 5 -9 4 -12 -2 -8 -6 4 -14 0 -17 -9 -3 -8 -2 -13 3 -10 13 8 21 -18 11
-35 -5 -7 -5 -18 1 -25 7 -8 5 -17 -6 -27 -10 -11 -11 -17 -3 -19 6 -2 12 -12
14 -21 1 -9 -2 -15 -7 -11 -5 3 -6 10 -3 16 4 7 2 8 -4 4 -6 -4 -9 -13 -6 -21
10 -26 10 -145 0 -145 -5 0 -1 -7 10 -16 10 -8 13 -12 6 -9 -10 5 -12 -5 -9
-44 2 -29 -1 -52 -7 -55 -7 -3 -6 -5 1 -5 8 -1 9 -10 3 -30 -6 -20 -5 -32 3
-35 9 -5 9 -8 -1 -12 -6 -3 -9 -11 -5 -17 11 -17 9 -51 -2 -59 -7 -5 -7 -8 0
-8 6 0 9 -35 9 -87 -1 -53 3 -94 10 -102 9 -12 8 -13 -3 -6 -11 6 -13 3 -7
-19 4 -17 2 -26 -5 -26 -7 0 -4 -9 7 -22 10 -12 13 -18 7 -14 -9 5 -12 -1 -9
-23 2 -18 -1 -31 -8 -31 -6 0 -4 -5 4 -10 12 -8 12 -10 1 -10 -27 0 -1 -14 32
-16 17 -1 32 -3 32 -4 0 -1 15 -2 33 -3 17 -1 32 1 32 5 0 8 21 5 37 -5 6 -4
14 -1 16 5 4 9 8 9 14 3 9 -11 53 -15 53 -5 0 8 48 5 57 -3 3 -4 12 -2 20 4
10 9 13 8 13 0 0 -7 5 -9 12 -5 15 10 77 11 71 2 -7 -13 12 -9 25 4 9 9 12 9
12 -1 0 -11 3 -11 15 -1 8 7 15 8 15 3 0 -10 41 -10 58 1 7 4 12 3 12 -3 0 -5
12 -8 28 -6 15 1 26 8 24 15 -2 8 4 10 15 6 16 -5 15 -4 -1 9 -13 10 -15 15
-6 15 10 0 9 5 -4 19 -13 14 -14 21 -5 27 8 5 10 3 4 -6 -5 -9 -4 -11 3 -6 9
5 9 13 2 27 -8 14 -7 19 1 19 7 0 5 8 -6 20 -17 19 -17 20 -2 14 15 -5 16 -2
9 17 -4 13 -7 33 -7 44 1 11 -4 26 -9 34 -8 11 -8 13 1 8 6 -4 14 -3 18 3 3 5
2 10 -4 10 -6 0 -7 8 -4 17 5 12 2 15 -10 10 -10 -4 -17 -2 -17 5 0 7 -4 7
-14 -1 -11 -9 -15 -9 -18 1 -4 10 -8 10 -19 1 -9 -7 -20 -9 -29 -3 -9 5 -19 5
-27 -2 -9 -7 -13 -7 -13 1 0 8 -6 9 -17 3 -10 -5 -27 -6 -38 -1 -27 10 -37 11
-31 1 7 -12 -37 -9 -46 2 -4 6 -13 4 -22 -3 -9 -8 -16 -9 -16 -4 0 5 -9 9 -20
10 -13 1 -18 -2 -14 -9 4 -7 2 -8 -5 -4 -6 4 -8 12 -5 18 4 6 0 14 -7 19 -12
7 -11 9 1 9 13 0 13 1 0 10 -13 9 -13 10 0 10 13 0 13 1 0 10 -13 9 -13 10 0
10 13 0 13 1 0 10 -13 9 -13 11 0 20 12 8 13 11 1 19 -11 7 -11 9 0 14 10 4
10 6 2 6 -7 1 -13 6 -13 12 0 5 4 8 8 5 4 -2 8 4 8 14 0 10 -3 17 -7 14 -9 -5
-6 17 4 34 5 7 3 12 -4 12 -8 0 -8 4 1 15 10 12 10 15 0 15 -9 0 -9 4 1 17 11
13 11 17 2 20 -7 3 -13 9 -13 14 0 6 4 8 9 5 9 -6 7 37 -4 53 -3 6 -1 11 6 11
8 0 7 5 -2 17 -10 11 -10 14 -1 9 6 -4 12 -2 12 3 0 6 -4 11 -10 11 -5 0 -10
5 -10 11 0 5 3 8 8 6 4 -3 7 19 8 48 0 30 -3 52 -8 49 -12 -8 -5 19 7 29 6 4
5 10 -4 16 -13 8 -13 12 0 27 9 11 9 15 2 10 -16 -9 -17 6 -1 22 9 9 9 12 -1
12 -11 0 -11 3 -1 15 9 11 9 15 1 15 -7 0 -10 4 -7 9 10 16 -4 37 -24 38 -11
1 -18 -1 -16 -5 2 -4 -7 -7 -21 -6 -13 0 -29 7 -34 15 -7 11 -9 11 -9 -3 0
-10 -5 -18 -11 -18 -5 0 -7 5 -4 10 7 11 -8 14 -19 3 -10 -11 -37 -12 -30 -2
3 5 10 6 16 3 7 -4 8 -2 4 4 -9 15 -12 15 -30 -3z m182 -240 c-3 -3 -9 2 -12
12 -6 14 -5 15 5 6 7 -7 10 -15 7 -18z"/>
<path d="M5562 3543 c-6 -3 -10 -8 -7 -12 2 -5 -6 -6 -19 -4 -22 5 -24 2 -23
-37 0 -26 -5 -45 -14 -51 -11 -7 -10 -9 6 -9 17 0 17 -2 5 -10 -11 -7 -11 -10
-2 -10 8 0 10 -5 6 -12 -11 -18 -10 -68 1 -68 6 0 1 -7 -9 -15 -13 -10 -15
-15 -6 -15 7 0 11 -3 7 -6 -3 -3 -2 -17 3 -30 6 -15 5 -26 -2 -30 -7 -5 -8 -3
-3 6 5 8 4 11 -3 6 -14 -9 -3 -38 12 -30 6 3 2 -2 -8 -10 -11 -9 -15 -16 -10
-16 14 0 14 -82 0 -99 -9 -12 -8 -13 3 -6 11 6 13 3 9 -13 -4 -12 -2 -22 4
-22 5 0 6 -5 3 -10 -4 -6 -11 -7 -17 -4 -7 5 -8 2 -2 -7 14 -21 14 -310 0
-302 -8 5 -8 3 0 -8 17 -22 23 -58 12 -66 -7 -4 -8 -1 -3 7 6 9 4 11 -4 5 -9
-5 -10 -10 -2 -18 7 -7 7 -15 -2 -26 -9 -12 -9 -13 1 -7 14 8 12 -19 -2 -43
-7 -11 -5 -13 9 -7 18 7 18 6 0 -14 -12 -13 -14 -20 -5 -20 10 0 10 -3 0 -15
-10 -12 -8 -14 9 -10 12 2 21 -1 21 -7 0 -6 7 -5 17 3 15 12 16 12 8 -1 -8
-13 -7 -13 8 -1 9 7 17 9 17 4 0 -5 9 -9 20 -9 11 0 20 3 20 6 0 10 44 6 52
-5 5 -6 8 -5 8 4 0 11 3 11 17 0 17 -14 20 -14 41 3 8 7 12 7 12 -2 0 -10 3
-10 15 0 12 10 15 10 15 0 0 -10 3 -10 14 -1 8 7 17 8 20 3 5 -9 59 -8 75 3 6
3 11 1 11 -6 0 -8 3 -9 13 0 8 6 17 8 21 4 11 -11 50 -9 59 2 4 7 10 7 15 0 9
-13 75 -13 84 0 5 6 8 5 8 -3 0 -10 3 -10 14 0 11 10 11 16 2 27 -8 12 -8 13
2 7 6 -4 12 -2 12 3 0 6 -6 11 -12 11 -9 0 -8 4 2 10 13 9 13 10 0 10 -12 0
-13 2 -1 9 11 7 11 9 0 14 -12 5 -12 7 0 15 11 8 11 10 0 15 -12 4 -11 7 1 16
13 10 13 11 0 11 -13 0 -13 1 0 10 13 9 13 10 0 10 -13 0 -13 1 0 10 8 5 10
10 4 10 -6 0 -10 22 -10 50 -1 28 -4 50 -7 51 -4 0 -20 4 -37 9 -16 5 -30 5
-30 1 0 -4 -7 -8 -15 -8 -8 0 -15 4 -15 9 0 11 -23 6 -32 -7 -5 -6 -8 -4 -8 5
0 13 -1 13 -10 0 -6 -10 -10 -11 -10 -3 0 9 -7 10 -25 3 -16 -6 -25 -6 -25 0
0 6 -9 6 -25 0 -14 -5 -25 -6 -25 -2 0 4 -18 7 -40 8 -25 0 -37 -3 -33 -10 4
-6 -1 -5 -10 3 -9 7 -14 17 -11 22 3 5 2 9 -3 9 -12 0 -10 204 2 212 7 5 7 8
0 8 -6 0 -8 32 -5 86 3 48 1 89 -4 95 -6 6 -5 9 5 9 12 0 12 2 -1 10 -9 6 -11
10 -3 10 7 0 10 7 6 16 -10 25 -9 218 1 232 6 9 5 11 -7 7 -8 -4 -18 -1 -23 6
-5 8 -3 10 7 4 11 -7 11 -5 -1 10 -13 16 -15 16 -18 2 -2 -10 -8 -17 -13 -17
-6 0 -8 4 -5 9 3 4 -18 7 -47 5 -28 -1 -56 1 -62 5 -5 5 -16 6 -23 4z"/>
<path d="M6567 3532 c-10 -10 -14 -22 -10 -25 3 -4 1 -7 -6 -7 -7 0 -9 -4 -6
-10 3 -5 1 -10 -5 -10 -6 0 -9 -4 -6 -8 3 -5 -1 -20 -9 -35 -8 -15 -11 -27 -7
-27 4 0 -2 -7 -12 -15 -14 -11 -16 -15 -5 -15 10 -1 9 -5 -5 -15 -11 -8 -15
-15 -10 -15 6 0 11 -6 11 -14 0 -8 -5 -12 -12 -10 -6 3 -11 -5 -12 -17 -1 -12
-8 -26 -15 -30 -10 -7 -10 -9 2 -9 13 0 13 -1 0 -10 -8 -5 -10 -10 -5 -10 6 0
3 -5 -5 -10 -11 -7 -11 -10 -2 -10 7 0 10 -5 7 -10 -4 -6 -11 -7 -17 -4 -7 5
-8 2 -4 -5 5 -7 0 -19 -10 -27 -11 -9 -13 -13 -6 -9 7 4 12 0 12 -9 0 -9 -4
-16 -10 -16 -5 0 -10 -11 -10 -25 0 -14 -4 -25 -10 -25 -6 0 -9 -3 -9 -7 4
-23 -2 -43 -10 -38 -6 3 -8 -4 -6 -15 2 -11 0 -20 -5 -20 -5 0 -7 -7 -4 -15 4
-8 1 -15 -6 -15 -6 0 -9 -4 -6 -9 4 -5 0 -12 -6 -14 -10 -4 -10 -6 0 -6 10 -1
9 -5 -3 -17 -13 -14 -14 -19 -3 -25 10 -7 9 -9 -4 -9 -9 0 -20 -5 -24 -12 -4
-7 -3 -8 4 -4 7 4 12 3 12 -3 0 -5 -5 -13 -10 -16 -6 -4 -8 -11 -5 -16 4 -5 1
-9 -6 -9 -8 0 -8 -4 1 -15 11 -13 10 -14 -5 -9 -15 6 -17 3 -13 -23 3 -23 1
-30 -9 -26 -9 4 -11 0 -7 -11 4 -10 1 -16 -7 -16 -7 0 -9 -3 -6 -7 4 -3 1 -13
-6 -21 -10 -13 -9 -14 3 -7 12 6 13 5 3 -6 -7 -7 -13 -21 -13 -32 0 -11 -4
-15 -12 -11 -8 5 -9 2 -5 -9 3 -10 2 -17 -4 -17 -6 0 -8 -4 -4 -9 3 -5 1 -12
-4 -16 -10 -6 -11 -45 -1 -45 4 0 7 -6 7 -14 0 -8 -5 -14 -11 -13 -6 1 -9 -7
-8 -18 4 -24 22 -45 22 -27 0 9 5 10 17 3 11 -6 24 -6 35 0 10 5 18 6 18 1 0
-5 7 -9 15 -9 8 0 15 5 15 10 0 5 6 4 14 -2 11 -9 15 -9 19 1 4 10 6 10 6 -1
1 -11 4 -11 16 -1 8 6 20 8 27 4 19 -12 38 -14 38 -3 0 5 10 9 23 10 12 0 17
3 10 6 -8 3 -9 10 -3 21 5 9 11 25 14 35 3 11 11 16 18 12 7 -4 4 1 -6 9 -16
13 -17 16 -4 16 9 0 15 8 14 18 0 9 5 16 12 14 8 -1 11 2 8 7 -4 5 -2 12 4 16
5 3 10 1 10 -5 0 -6 5 -8 12 -3 19 11 69 13 63 2 -4 -5 1 -6 9 -3 9 3 13 10
10 15 -3 5 2 6 10 3 9 -3 16 -11 16 -18 0 -6 5 -4 10 4 5 8 10 11 10 6 0 -5 8
-2 17 5 14 12 16 12 9 0 -6 -9 -5 -12 5 -9 8 3 24 1 36 -3 12 -5 25 -4 28 1 9
14 45 7 45 -10 0 -13 2 -13 11 0 9 12 10 11 6 -7 -3 -14 0 -21 7 -20 6 1 10
-6 8 -15 -2 -10 1 -18 7 -18 5 0 7 -10 3 -22 -3 -14 -2 -19 6 -14 8 5 12 -2
12 -18 0 -23 9 -31 33 -27 4 0 7 -4 7 -10 0 -8 6 -7 17 2 9 8 19 12 22 11 30
-18 39 -20 49 -10 9 9 12 9 12 -1 0 -11 3 -11 15 -1 10 8 15 9 15 1 0 -7 8 -8
24 -1 17 6 26 5 29 -3 3 -9 8 -9 20 2 12 9 17 10 17 2 0 -7 4 -10 9 -6 12 7 6
42 -10 61 -7 8 -7 14 -1 14 14 0 10 33 -6 43 -10 7 -10 12 -1 23 8 10 8 14 0
14 -6 0 -11 9 -11 20 0 11 -4 20 -8 20 -5 0 -9 6 -9 13 -1 24 -8 42 -23 54
-12 10 -13 12 -1 13 11 0 11 4 -2 18 -10 10 -18 31 -19 45 -1 15 -5 27 -9 27
-3 0 -6 7 -7 15 -1 8 -3 22 -4 30 -1 9 -7 14 -14 11 -8 -3 -10 2 -6 16 4 16 2
19 -9 13 -12 -8 -12 -6 0 8 9 12 10 17 2 17 -7 0 -9 5 -6 10 3 6 1 10 -6 10
-7 0 -10 3 -6 6 3 4 -1 20 -9 36 -8 16 -12 33 -9 38 3 6 1 10 -4 10 -6 0 -11
12 -11 26 0 17 -4 23 -12 18 -8 -5 -9 -2 -5 9 3 10 2 17 -3 17 -5 0 -7 7 -4
15 4 8 2 15 -3 15 -5 0 -9 10 -10 22 -1 11 -7 24 -14 28 -8 6 -8 9 2 13 9 3 7
6 -6 6 -17 1 -17 3 -5 11 12 7 12 10 1 10 -7 0 -11 6 -7 15 3 8 2 15 -2 15
-10 0 -32 59 -32 84 0 9 -4 15 -9 12 -5 -3 -8 6 -8 21 0 14 -8 30 -17 35 -9 5
-14 13 -11 18 10 16 -17 58 -41 63 -13 2 -22 1 -19 -2 7 -12 -43 -5 -58 8 -12
9 -17 9 -23 0 -5 -8 -3 -10 7 -4 12 7 12 6 0 -6 -10 -11 -15 -11 -18 -1 -3 6
-9 12 -14 12 -6 0 -8 -3 -6 -7 3 -5 -14 -8 -38 -8 -24 -1 -41 3 -39 7 3 5 10
5 16 2 7 -4 8 -2 4 4 -9 15 -10 15 -29 -6z m129 -496 c8 -8 14 -19 14 -25 0
-6 5 -11 11 -11 5 0 7 -5 4 -10 -4 -6 -12 -7 -18 -3 -7 4 -5 -2 3 -12 15 -19
14 -19 -12 -2 -26 16 -27 16 -21 0 6 -15 4 -16 -9 -6 -8 7 -19 9 -23 5 -5 -4
-4 0 1 8 4 8 9 22 11 30 1 8 7 16 13 18 5 2 8 8 4 13 -8 14 6 11 22 -5z"/>
<path d="M7286 3536 c3 -8 0 -17 -7 -22 -8 -4 -10 -3 -5 4 4 7 5 12 2 12 -3 0
-10 -10 -17 -21 -8 -15 -8 -19 0 -15 15 10 14 -7 -1 -22 -10 -10 -10 -15 1
-22 12 -7 12 -11 2 -24 -11 -13 -11 -16 0 -16 11 0 11 -2 -1 -10 -13 -9 -13
-10 0 -10 13 0 13 -1 0 -10 -8 -5 -10 -10 -3 -10 13 0 12 -18 -2 -39 -5 -10
-4 -16 3 -19 7 -2 12 -8 12 -13 0 -6 -6 -7 -12 -3 -9 5 -9 2 1 -9 11 -14 11
-17 0 -17 -12 0 -12 -2 0 -9 11 -7 11 -9 0 -14 -12 -4 -11 -7 1 -16 13 -10 13
-11 0 -11 -13 0 -13 -1 0 -10 13 -9 13 -11 0 -20 -13 -9 -13 -10 0 -10 13 0
13 -1 0 -10 -13 -9 -13 -11 0 -20 13 -9 13 -10 0 -10 -13 0 -13 -1 0 -10 13
-9 13 -11 0 -20 -13 -9 -13 -10 0 -10 13 0 13 -1 0 -10 -13 -9 -13 -11 0 -20
13 -9 13 -10 0 -10 -13 0 -13 -1 0 -10 13 -9 13 -11 0 -20 -13 -9 -13 -11 0
-20 13 -9 13 -10 0 -10 -13 0 -13 -1 0 -10 13 -9 13 -10 0 -10 -13 0 -13 -1 0
-10 13 -9 13 -10 0 -10 -12 0 -13 -2 -1 -9 11 -7 11 -9 0 -14 -10 -4 -10 -6
-1 -6 6 -1 12 -6 12 -12 0 -5 -5 -7 -11 -3 -7 4 -7 -1 1 -16 8 -15 8 -20 1
-16 -6 4 -11 2 -11 -3 0 -6 4 -11 10 -11 12 0 8 -43 -5 -52 -6 -5 -5 -8 3 -8
6 0 12 -5 12 -11 0 -5 -3 -8 -7 -6 -5 3 -8 -17 -8 -43 -1 -27 2 -47 6 -44 4 2
9 -3 12 -11 4 -8 1 -12 -6 -9 -7 2 -13 -4 -14 -16 -1 -11 2 -20 8 -20 5 0 9
-5 9 -11 0 -5 -6 -7 -12 -3 -10 6 -10 4 0 -8 10 -13 10 -17 0 -21 -9 -4 -10
-8 -2 -14 17 -12 13 -45 -4 -38 -11 4 -11 0 3 -21 11 -17 12 -24 4 -18 -11 6
-11 4 0 -10 11 -13 16 -14 22 -4 6 9 9 9 9 1 0 -11 24 -12 36 -1 3 4 17 3 30
-2 17 -7 24 -6 24 3 0 8 3 7 9 -2 8 -13 12 -13 27 0 16 12 17 12 9 -1 -8 -13
-7 -13 8 -1 10 8 17 9 17 3 0 -6 12 -9 28 -8 22 3 27 8 27 32 0 16 4 35 8 41
6 9 3 11 -7 7 -9 -3 -16 -1 -16 5 0 6 5 11 10 11 12 0 9 98 -3 117 -4 6 -2 15
4 19 8 5 9 3 4 -6 -5 -8 -4 -11 3 -6 6 4 8 17 3 34 -4 15 -6 37 -5 50 1 12 -4
22 -10 22 -8 0 -8 2 0 8 6 4 14 15 17 26 6 14 4 17 -9 12 -14 -5 -15 -4 -5 8
6 8 9 28 6 45 -4 21 -1 31 7 31 10 0 10 2 0 9 -11 7 -10 10 3 15 20 7 35 0 35
-19 0 -8 8 -18 18 -24 9 -5 15 -11 13 -13 -8 -6 11 -48 20 -43 5 4 9 -1 9 -9
0 -9 5 -16 11 -16 5 0 8 -4 4 -9 -3 -5 -1 -12 5 -16 6 -4 7 -12 4 -18 -4 -7
-4 -9 0 -5 9 8 36 -13 30 -23 -2 -4 3 -12 11 -19 8 -7 15 -19 15 -26 0 -8 5
-14 10 -14 6 0 10 -7 10 -15 0 -8 5 -15 10 -15 6 0 10 -7 10 -15 0 -8 5 -15
10 -15 6 0 10 -9 10 -20 0 -11 3 -19 8 -19 19 3 23 -2 12 -16 -11 -13 -10 -14
3 -10 8 4 18 1 23 -6 4 -8 3 -10 -4 -5 -20 12 -13 -9 7 -24 11 -7 18 -17 15
-22 -3 -4 0 -8 5 -8 6 0 11 -7 11 -16 0 -8 4 -13 9 -9 5 3 13 0 17 -6 5 -8 9
-7 14 2 6 8 13 10 22 3 16 -11 38 -11 57 0 11 7 12 6 6 -5 -8 -12 -6 -12 8 0
12 9 17 10 17 2 0 -7 5 -9 13 -4 6 4 21 6 32 5 16 -2 21 3 23 24 1 15 -4 34
-10 42 -8 10 -9 13 -2 9 8 -5 11 6 10 36 -1 23 1 54 5 68 4 15 3 31 -3 37 -6
6 -6 12 2 17 8 5 6 12 -6 26 -12 13 -14 22 -7 31 6 7 10 37 11 67 0 35 -3 49
-9 40 -6 -9 -9 -10 -9 -2 0 6 4 14 9 17 5 3 11 15 14 26 3 11 2 18 -3 15 -4
-3 -11 2 -14 10 -3 9 1 18 9 22 13 5 13 7 -2 18 -13 10 -15 16 -6 26 5 8 10
38 11 68 0 35 -3 49 -9 40 -6 -9 -9 -10 -9 -2 0 6 5 15 10 18 6 3 10 13 10 21
0 10 -5 12 -12 8 -10 -6 -10 -5 -2 7 7 8 12 28 12 44 0 17 -5 36 -12 44 -8 12
-8 13 2 7 7 -4 12 -2 12 6 0 8 -6 20 -12 27 -8 9 -8 11 -2 8 15 -9 25 18 12
31 -6 6 -6 12 2 17 8 5 6 13 -6 26 -13 15 -15 22 -6 31 16 16 15 45 0 51 -10
4 -10 6 0 6 21 2 13 29 -10 37 -39 13 -69 10 -78 -6 -7 -10 -9 -11 -10 -2 0 7
-4 11 -9 8 -5 -3 -14 1 -21 9 -11 13 -44 10 -36 -4 2 -3 -6 -6 -19 -6 -13 0
-21 4 -18 9 3 5 0 7 -8 4 -8 -3 -16 -15 -18 -29 -1 -13 -8 -27 -15 -31 -8 -6
-8 -8 2 -8 6 0 12 -5 12 -11 0 -5 -6 -7 -12 -3 -10 6 -10 4 0 -8 10 -13 10
-17 0 -20 -10 -4 -11 -8 -1 -20 7 -8 10 -18 7 -21 -11 -11 -12 -67 -2 -73 6
-4 5 -10 -3 -15 -12 -7 -12 -9 0 -9 11 0 11 -3 0 -17 -10 -11 -10 -14 -1 -9 6
4 12 3 12 -1 0 -5 -6 -15 -12 -22 -10 -11 -10 -13 0 -7 6 4 12 2 12 -3 0 -6
-6 -11 -12 -11 -9 0 -8 -4 2 -10 13 -9 13 -10 0 -10 -13 0 -13 -1 0 -10 13 -9
13 -10 0 -10 -12 0 -13 -2 -1 -9 11 -7 11 -9 0 -14 -10 -4 -10 -6 -1 -6 6 -1
12 -6 12 -12 0 -5 -6 -7 -12 -3 -10 5 -10 4 -1 -6 6 -7 9 -18 6 -25 -6 -17
-53 21 -53 42 0 8 -5 11 -10 8 -6 -4 -10 -3 -9 2 4 22 -2 43 -11 38 -9 -6 -14
8 -11 28 0 4 -6 7 -14 7 -8 0 -15 5 -15 11 0 5 6 7 13 4 6 -4 4 0 -5 8 -10 8
-18 20 -18 26 0 7 -4 9 -10 6 -5 -3 -10 3 -10 15 0 12 -4 18 -10 15 -5 -3 -10
3 -10 14 0 12 -4 21 -10 21 -5 0 -10 7 -10 15 0 9 -7 18 -16 22 -8 3 -13 11
-10 18 2 6 -4 18 -15 26 -10 7 -19 22 -19 32 0 10 -4 16 -9 13 -5 -4 -15 8
-23 24 -11 25 -18 30 -41 28 -16 -2 -32 3 -37 12 -8 13 -10 12 -10 -2 0 -10
-5 -18 -11 -18 -5 0 -8 4 -5 8 2 4 -10 8 -29 8 -19 0 -31 -4 -28 -9 3 -5 -3
-4 -14 2 -14 7 -24 7 -33 -2 -9 -8 -11 -8 -7 -1 4 7 0 14 -8 17 -9 4 -12 1 -9
-7z"/>
<path d="M7926 3542 c-3 -5 1 -9 9 -9 8 0 12 4 9 9 -3 4 -7 8 -9 8 -2 0 -6 -4
-9 -8z"/>
<path d="M8362 3543 c-6 -3 -10 -8 -7 -12 4 -8 -30 -7 -80 3 -21 5 -26 4 -15
-3 12 -9 12 -11 -4 -17 -14 -5 -15 -9 -4 -15 10 -7 10 -9 0 -9 -10 0 -10 -5
-1 -22 10 -18 9 -20 -6 -14 -15 5 -16 4 -5 -9 7 -8 10 -24 7 -35 -3 -11 0 -20
6 -21 7 0 3 -4 -8 -9 -11 -5 -15 -9 -9 -9 7 -1 14 -10 17 -22 4 -16 2 -19 -10
-15 -13 5 -14 4 -3 -9 10 -11 10 -18 1 -29 -9 -10 -9 -16 -1 -21 6 -4 10 -19
9 -33 -2 -15 0 -33 4 -40 5 -7 3 -12 -3 -12 -8 0 -9 -7 -5 -17 13 -31 11 -58
-5 -71 -10 -9 -11 -11 -1 -6 11 5 13 1 9 -19 -3 -14 -1 -31 3 -38 4 -7 3 -21
-2 -31 -7 -13 -6 -18 3 -19 7 0 4 -4 -7 -9 -11 -5 -14 -9 -6 -9 8 -1 11 -8 8
-21 -3 -11 -1 -23 4 -26 5 -3 7 -10 3 -15 -9 -15 -8 -104 1 -119 5 -9 4 -11
-3 -6 -7 4 -12 2 -12 -3 0 -6 6 -11 13 -11 8 0 7 -4 -3 -10 -13 -9 -13 -10 0
-11 10 0 8 -3 -5 -9 -11 -5 -14 -9 -6 -9 8 -1 11 -8 8 -21 -3 -11 -1 -22 3
-25 4 -3 6 -14 3 -25 -3 -11 -10 -17 -17 -13 -6 4 -5 -1 3 -11 15 -18 22 -66
9 -66 -4 0 -4 -7 -1 -17 5 -12 3 -14 -8 -8 -12 8 -12 6 0 -8 11 -14 11 -17 0
-17 -8 0 -3 -6 11 -14 16 -8 29 -9 38 -3 8 6 12 6 12 -1 0 -7 10 -8 32 -1 18
5 34 5 37 1 8 -9 51 -11 51 -1 0 9 20 6 38 -4 7 -5 12 -3 12 3 0 6 4 9 9 6 15
-10 19 44 4 60 -8 8 -10 14 -4 14 6 0 11 16 11 36 0 25 -4 33 -12 29 -7 -4 -5
0 4 7 11 9 14 19 8 28 -5 9 -5 19 2 27 8 10 7 13 -3 13 -12 0 -12 2 0 9 7 5
10 14 7 20 -4 6 -2 19 4 28 10 16 10 15 5 -4 -3 -12 -1 -24 5 -28 6 -4 9 -3 8
2 -5 14 26 49 47 55 23 6 45 -13 45 -37 0 -8 3 -14 8 -14 27 5 34 -1 21 -18
-8 -9 -9 -14 -4 -11 6 3 16 0 23 -8 7 -8 10 -14 7 -14 -3 0 3 -8 13 -18 9 -11
21 -17 26 -14 4 2 5 -6 1 -19 -4 -13 -4 -21 0 -16 10 9 45 -21 45 -39 0 -8 9
-19 20 -26 21 -14 28 -34 8 -22 -7 4 -10 4 -6 0 3 -4 10 -8 15 -8 4 0 14 -9
21 -20 7 -10 18 -16 23 -13 5 4 9 0 9 -7 0 -8 3 -9 8 -3 6 9 30 11 57 5 6 -1
15 -1 20 0 32 7 65 5 68 -4 2 -7 11 -5 22 4 18 15 21 15 40 0 6 -4 26 -2 45 6
19 7 27 13 18 13 -9 1 -20 5 -23 11 -4 6 1 7 12 4 12 -4 10 0 -7 14 -21 17
-22 22 -9 27 20 8 20 35 0 35 -14 0 -14 2 -1 10 13 9 13 10 0 11 -8 1 -19 1
-23 0 -5 -1 -6 3 -3 8 3 5 -7 21 -22 37 -15 15 -21 24 -15 20 9 -5 11 -2 7 9
-4 9 -9 14 -12 11 -8 -9 -42 36 -35 47 3 5 1 7 -4 4 -6 -4 -13 3 -16 14 -4 13
-10 18 -18 13 -8 -4 -10 -3 -5 4 4 7 2 12 -3 12 -6 0 -11 6 -11 14 0 8 -7 17
-16 20 -8 3 -12 10 -9 16 3 5 1 10 -4 10 -6 0 -11 7 -11 15 0 8 -6 15 -14 15
-8 0 -18 5 -22 12 -4 7 -3 8 4 4 7 -4 12 -2 12 3 0 6 -7 11 -16 11 -8 0 -13 4
-9 9 3 5 -4 13 -15 16 -17 5 -19 9 -9 21 10 12 10 15 -2 12 -8 -2 -13 3 -11
10 1 6 -4 12 -11 12 -7 0 -18 9 -25 21 -8 12 -9 18 -3 15 7 -4 8 -1 5 8 -3 9
-11 13 -18 9 -6 -4 -5 1 3 10 7 9 17 14 22 11 5 -3 9 2 9 10 0 9 5 16 11 16 6
0 9 7 5 15 -5 13 5 20 27 16 4 0 6 2 5 6 -4 16 23 53 34 47 7 -4 8 -3 4 4 -4
7 -2 12 5 12 7 0 10 2 7 5 -6 6 21 42 65 86 15 15 27 31 27 37 0 5 7 13 16 16
8 3 12 10 9 16 -3 5 -1 10 5 10 6 0 8 4 5 10 -4 6 1 7 12 3 10 -3 15 -3 11 2
-4 4 0 15 10 24 20 18 25 64 6 57 -7 -3 -10 3 -7 15 3 10 9 19 14 19 5 0 9 5
9 11 0 7 -12 9 -30 7 -17 -3 -34 0 -37 5 -4 6 -1 7 7 2 9 -6 11 -4 5 5 -6 10
-11 9 -21 -4 -6 -9 -15 -13 -17 -8 -3 4 -20 7 -36 5 -17 -2 -44 -4 -61 -6 -22
-2 -27 0 -19 9 8 9 5 11 -10 7 -12 -3 -18 -10 -14 -16 4 -6 1 -7 -6 -3 -18 11
-61 15 -55 5 3 -5 0 -9 -6 -9 -6 0 -8 -5 -4 -12 6 -9 3 -9 -9 0 -14 12 -16 11
-12 -7 2 -12 0 -19 -6 -16 -5 4 -12 -1 -15 -9 -3 -9 -11 -13 -18 -9 -6 4 -5
-1 3 -10 12 -15 12 -17 -1 -12 -10 4 -19 -4 -28 -25 -9 -21 -18 -29 -28 -25
-13 5 -13 3 -1 -12 8 -9 9 -14 2 -10 -7 4 -20 -7 -33 -28 -12 -19 -26 -35 -31
-35 -5 0 -13 -8 -16 -17 -9 -24 -29 -44 -36 -36 -4 3 -5 -3 -3 -14 3 -12 -1
-20 -9 -20 -8 0 -11 5 -8 10 4 6 1 7 -6 3 -7 -5 -10 -15 -7 -23 3 -8 2 -12 -3
-9 -14 9 -20 56 -7 56 6 0 4 5 -4 10 -11 7 -11 10 -2 10 7 0 10 5 7 11 -4 6
-7 62 -7 125 l0 115 -43 -2 c-24 -2 -49 2 -57 8 -7 6 -19 8 -26 6z"/>
<path d="M9605 3542 c-11 -2 -25 -8 -32 -14 -7 -5 -13 -5 -17 1 -16 25 -80
-17 -69 -45 3 -8 0 -14 -7 -14 -6 0 -8 -4 -5 -10 3 -5 1 -10 -5 -10 -6 0 -8
-5 -5 -11 4 -6 -1 -17 -11 -25 -18 -13 -18 -14 1 -8 20 6 20 5 1 -10 -11 -9
-16 -16 -12 -16 5 0 2 -8 -5 -17 -12 -14 -12 -16 1 -9 9 4 8 2 -2 -7 -10 -8
-15 -17 -11 -20 3 -4 0 -13 -6 -21 -7 -8 -10 -20 -6 -26 3 -5 1 -10 -4 -10 -6
0 -11 -3 -10 -7 2 -16 -14 -53 -22 -53 -5 0 -9 -5 -9 -11 0 -5 6 -7 13 -3 10
6 10 4 0 -7 -7 -7 -13 -21 -13 -32 0 -11 -4 -15 -12 -11 -8 5 -9 2 -5 -9 4
-10 1 -17 -6 -17 -8 0 -6 -4 3 -10 13 -9 8 -14 -12 -11 -4 0 -5 -8 -3 -19 2
-11 -4 -27 -13 -36 -9 -9 -16 -28 -17 -43 0 -16 -5 -25 -13 -23 -10 2 -10 -2
-3 -17 8 -14 7 -20 -4 -25 -10 -4 -14 -14 -11 -31 3 -14 1 -23 -5 -20 -5 4
-10 0 -11 -7 0 -7 -2 -17 -2 -23 -1 -5 -5 -16 -9 -22 -5 -7 -5 -13 0 -13 4 0
2 -4 -5 -9 -7 -4 -14 -18 -15 -29 -1 -12 -4 -22 -7 -22 -3 0 -6 -10 -7 -22 -1
-11 -7 -24 -14 -28 -6 -4 -8 -13 -5 -19 4 -6 2 -11 -4 -11 -6 0 -8 -4 -5 -10
3 -5 0 -19 -8 -31 -9 -12 -13 -33 -10 -50 3 -20 0 -29 -9 -29 -9 0 -9 -3 2
-10 11 -7 11 -10 2 -10 -7 0 -10 -4 -7 -10 3 -5 1 -10 -5 -10 -6 0 -8 -5 -5
-11 4 -6 13 -8 20 -5 7 2 18 -1 25 -7 10 -9 11 -9 6 1 -4 6 -2 12 3 12 6 0 11
-3 11 -7 0 -5 11 -8 25 -8 14 0 25 2 25 5 0 8 44 5 58 -4 7 -4 12 -2 12 5 0 8
4 8 15 -1 12 -10 18 -10 30 0 11 9 15 9 15 1 0 -18 41 24 45 45 2 11 4 21 6
24 1 3 3 12 3 20 1 8 8 14 15 12 7 -1 10 2 6 8 -9 14 4 52 16 45 5 -4 9 -3 9
2 0 4 11 8 25 8 14 0 25 -4 25 -9 0 -6 7 -1 16 10 8 10 12 13 8 5 -5 -11 -2
-13 14 -9 13 4 22 1 22 -5 0 -8 3 -8 11 0 6 6 18 9 27 6 11 -5 13 -3 7 8 -7
11 -6 12 6 4 8 -6 25 -10 39 -10 14 0 28 -4 32 -10 5 -7 8 -6 8 0 0 6 12 10
28 10 20 -1 28 -7 30 -25 2 -13 10 -29 17 -37 8 -7 11 -21 8 -30 -5 -12 -3
-14 7 -8 10 6 12 3 8 -12 -6 -23 17 -49 42 -47 8 0 21 -4 28 -9 7 -6 12 -6 12
0 0 5 7 10 15 10 8 0 15 -3 15 -7 0 -3 9 -6 20 -6 11 0 20 4 20 8 0 4 10 4 23
-1 14 -5 30 -5 40 0 12 7 17 6 17 -2 0 -8 3 -9 13 0 8 6 16 9 18 7 2 -2 10 2
17 10 8 9 9 14 2 14 -6 0 -8 5 -5 10 3 6 1 10 -6 10 -7 0 -6 8 4 24 17 26 11
42 -9 25 -9 -8 -11 -5 -7 10 3 12 -2 37 -11 56 -10 19 -14 40 -10 47 4 7 3 8
-4 4 -8 -5 -12 0 -12 13 0 12 -4 21 -10 21 -5 0 -10 14 -10 31 0 16 -4 28 -9
25 -4 -3 -7 6 -5 19 1 14 -3 28 -8 32 -7 4 -8 1 -3 -8 7 -12 5 -12 -6 -1 -12
11 -12 14 1 22 8 5 10 10 4 10 -11 0 -26 30 -28 58 -1 7 -8 17 -16 22 -13 8
-13 10 -1 10 11 0 9 4 -5 15 -14 10 -15 14 -5 15 11 0 10 4 -5 16 -10 8 -13
13 -6 9 6 -3 12 -2 12 4 0 5 -5 11 -10 13 -6 2 -12 13 -13 26 0 12 -6 22 -13
22 -7 0 -10 12 -8 31 2 16 0 28 -4 25 -4 -2 -12 7 -19 20 -6 13 -7 22 -2 18 5
-3 9 0 9 5 0 6 -3 11 -8 11 -4 0 -13 9 -20 21 -8 12 -9 18 -3 14 6 -3 11 -1
11 4 0 6 -5 11 -11 11 -5 0 -7 5 -4 10 3 6 2 10 -4 10 -6 0 -8 7 -5 15 3 8 -2
22 -11 31 -9 9 -14 23 -11 30 3 8 1 14 -5 14 -6 0 -9 7 -5 15 3 10 -1 15 -12
16 -10 0 -12 3 -4 6 6 2 12 9 12 14 0 6 -4 8 -9 5 -5 -3 -11 1 -15 9 -3 8 0
15 7 15 8 0 6 4 -3 10 -8 5 -10 10 -5 10 6 0 2 5 -8 11 -9 6 -15 14 -12 19 3
5 -2 21 -11 35 -15 24 -18 24 -34 10 -12 -11 -20 -13 -25 -6 -4 8 -12 8 -23 2
-11 -6 -22 -5 -32 3 -8 7 -24 11 -35 8z m25 -12 c0 -5 -5 -10 -11 -10 -5 0 -7
5 -4 10 3 6 8 10 11 10 2 0 4 -4 4 -10z m101 -13 c-10 -9 -11 -8 -5 6 3 10 9
15 12 12 3 -3 0 -11 -7 -18z m-88 -381 c8 5 8 3 0 -6 -10 -11 -9 -16 5 -27 16
-12 16 -13 0 -7 -15 5 -15 3 -5 -19 8 -17 14 -22 19 -14 6 9 8 9 8 0 0 -6 -5
-15 -11 -19 -8 -4 -7 -9 2 -15 12 -7 11 -9 -1 -9 -9 -1 -5 -6 10 -15 l25 -14
-25 -1 c-20 0 -22 -2 -10 -10 13 -9 13 -10 0 -11 -8 0 -22 -2 -31 -4 -23 -4
-35 6 -43 37 -4 20 -2 30 11 37 14 8 15 10 3 11 -13 0 -13 1 0 10 9 5 19 5 25
0 8 -6 12 -5 12 4 0 10 -9 13 -26 9 -25 -4 -25 -3 -7 10 21 15 31 47 15 47 -6
0 -7 5 -3 12 6 9 9 9 12 0 2 -7 9 -9 15 -6z"/>
<path d="M4240 2383 c0 -12 -3 -14 -8 -6 -5 8 -13 9 -22 3 -8 -5 -21 -5 -32 1
-12 6 -25 6 -37 -1 -14 -7 -22 -7 -26 0 -5 8 -11 8 -20 0 -10 -8 -15 -8 -20 0
-5 7 -11 8 -19 1 -7 -6 -17 -6 -26 -1 -9 6 -17 5 -22 -3 -5 -8 -10 -9 -15 -2
-8 11 -43 12 -60 2 -5 -3 -15 -2 -23 3 -9 5 -19 5 -27 -2 -9 -7 -13 -7 -13 1
0 7 -8 8 -25 1 -16 -6 -25 -6 -25 1 0 6 -6 6 -18 0 -11 -6 -24 -6 -35 0 -12 7
-17 6 -17 -2 0 -8 -4 -8 -15 1 -12 10 -15 10 -15 0 0 -9 -4 -9 -12 -2 -21 17
-24 17 -41 3 -12 -9 -17 -10 -17 -2 0 9 -5 9 -20 1 -11 -6 -20 -7 -20 -1 0 12
-33 9 -42 -4 -5 -6 -8 -5 -8 3 0 9 -5 10 -17 3 -10 -5 -26 -5 -40 0 -16 6 -23
5 -23 -4 0 -8 -3 -8 -8 -2 -7 11 -48 12 -59 2 -3 -4 -14 -2 -24 4 -13 7 -19 6
-19 -1 0 -7 -7 -7 -21 1 -16 8 -20 8 -14 -1 6 -9 3 -9 -13 -1 -15 8 -22 8 -25
-2 -4 -9 -6 -9 -6 1 -1 9 -6 10 -20 3 -10 -6 -21 -7 -25 -4 -10 11 -56 11 -62
1 -3 -4 -11 -5 -17 -1 -19 12 -37 12 -37 1 0 -7 -5 -6 -14 1 -10 8 -16 9 -21
1 -4 -7 -12 -7 -26 0 -10 6 -19 7 -19 2 0 -5 -7 -9 -15 -9 -8 0 -15 4 -15 9 0
5 -5 6 -11 3 -17 -11 -59 -13 -65 -3 -3 5 -12 4 -20 -3 -11 -9 -14 -8 -14 2 0
10 -3 10 -12 1 -14 -14 -32 -16 -24 -3 6 9 -42 6 -51 -3 -4 -3 -12 -1 -20 5
-10 9 -13 8 -13 -1 0 -9 -3 -10 -13 -1 -10 8 -17 7 -25 -1 -7 -7 -12 -8 -12
-2 0 12 -35 12 -46 1 -4 -4 -13 -2 -21 4 -10 9 -13 8 -13 0 0 -7 -5 -9 -12 -5
-19 12 -48 12 -48 1 0 -5 -7 -4 -15 3 -10 9 -15 9 -15 1 0 -6 -5 -11 -11 -11
-5 0 -8 4 -5 8 2 4 -4 8 -15 8 -10 0 -19 -4 -19 -8 0 -5 -10 -4 -21 3 -15 8
-19 8 -15 0 10 -15 -7 -14 -22 1 -9 9 -12 9 -12 -1 0 -10 -3 -11 -14 -2 -11 9
-15 9 -19 -1 -4 -11 -6 -11 -6 0 -1 10 -6 10 -21 2 -15 -8 -20 -8 -20 1 0 8
-4 8 -15 -1 -12 -10 -15 -10 -15 1 0 12 -2 12 -9 0 -6 -9 -10 -10 -16 -2 -5 9
-10 9 -21 0 -11 -9 -14 -8 -14 2 0 9 -3 10 -8 4 -8 -11 -41 -13 -58 -2 -6 3
-14 3 -18 0 -4 -4 -16 -8 -29 -10 -12 -2 -26 -8 -31 -13 -5 -5 -1 -7 11 -4 12
3 24 1 27 -5 5 -7 0 -9 -11 -5 -15 5 -15 4 -3 -5 11 -7 20 -5 34 7 11 9 16 11
12 5 -4 -7 -2 -13 4 -13 6 0 8 -5 4 -11 -4 -7 1 -7 16 1 12 7 20 7 16 2 -4 -6
13 -9 44 -8 28 1 50 -1 50 -5 0 -3 14 -5 31 -3 20 3 28 0 23 -7 -4 -8 -1 -8
13 -1 11 6 25 7 33 2 9 -6 17 -5 22 3 5 8 8 8 8 1 0 -6 11 -10 25 -9 14 2 25
-2 25 -8 0 -8 3 -8 8 -2 4 6 14 10 22 10 8 0 18 -4 22 -10 5 -6 8 -5 8 4 0 10
3 11 13 2 10 -8 17 -7 25 1 9 9 12 9 12 -1 0 -10 3 -11 13 -2 8 6 17 8 21 4 8
-8 39 -12 116 -14 25 -1 54 -6 65 -12 17 -9 18 -8 7 5 -10 13 -9 15 13 10 14
-2 22 -9 18 -15 -4 -6 -1 -7 8 -2 17 11 79 13 85 3 3 -5 11 -5 17 -1 20 12 37
12 37 0 0 -7 5 -5 10 3 9 13 10 13 10 0 0 -13 1 -13 10 0 5 8 10 10 10 4 0
-14 30 -14 30 0 0 6 4 4 10 -4 5 -8 12 -11 16 -7 4 4 14 1 22 -6 13 -9 14 -9
8 1 -9 14 -9 14 32 3 18 -6 30 -6 28 -2 -9 14 92 5 110 -10 10 -8 15 -9 11 -2
-9 15 35 14 45 -2 5 -6 8 -5 8 3 0 9 5 10 18 3 11 -6 24 -6 35 0 12 7 17 6 17
-3 0 -10 2 -10 9 1 6 8 14 10 22 5 8 -5 24 -7 37 -5 12 1 22 -3 22 -9 0 -6 -5
-8 -12 -4 -6 4 -8 3 -5 -3 4 -6 18 -9 32 -8 16 2 25 -2 25 -11 0 -13 12 -18
33 -15 4 0 7 -5 7 -13 0 -9 7 -13 20 -11 11 2 25 -4 32 -13 17 -22 64 -61 54
-44 -4 6 -2 12 3 12 6 0 11 -7 11 -17 0 -9 3 -13 6 -10 8 8 106 -43 117 -60 4
-7 14 -10 22 -7 8 4 15 2 15 -4 0 -5 7 -13 16 -16 8 -3 12 -2 9 4 -3 6 -1 10
4 10 6 0 11 -4 11 -9 0 -5 12 -16 26 -26 18 -11 24 -12 18 -4 -6 12 -5 12 9 0
9 -7 17 -10 17 -5 0 4 6 0 13 -11 8 -10 19 -15 25 -11 5 3 12 1 14 -5 2 -6 16
-12 31 -12 15 -1 27 -7 27 -14 0 -7 7 -10 15 -7 8 3 31 -3 51 -15 19 -12 32
-15 28 -9 -4 7 2 5 14 -5 11 -11 25 -16 31 -13 5 4 13 1 16 -5 4 -5 13 -8 21
-5 8 3 14 0 14 -6 0 -6 3 -8 7 -5 3 4 12 2 20 -4 7 -6 13 -8 13 -4 0 4 7 2 15
-5 12 -10 15 -10 15 0 0 9 5 8 18 -3 22 -20 36 -22 26 -4 -6 9 -5 9 8 0 8 -7
19 -9 23 -5 5 4 5 1 0 -7 -6 -11 -2 -13 17 -9 13 2 30 -2 37 -10 11 -12 15
-12 22 0 5 8 9 9 9 2 0 -7 7 -15 16 -18 10 -4 13 -2 8 7 -6 9 -4 9 8 -1 8 -7
23 -10 32 -6 9 3 16 2 16 -3 0 -5 14 -10 31 -11 44 -3 53 -6 61 -17 5 -6 8 -5
8 4 0 9 4 10 13 4 6 -6 24 -10 39 -9 14 1 24 -2 21 -8 -3 -5 0 -6 8 -4 8 3 22
1 33 -4 13 -7 16 -7 12 1 -4 6 -3 11 3 11 5 0 13 -5 16 -10 4 -6 11 -8 16 -4
5 3 17 0 26 -8 15 -11 16 -11 10 6 -7 17 -6 17 9 5 10 -8 25 -13 35 -11 9 2
20 -2 24 -8 5 -8 10 -8 20 0 9 8 15 8 20 0 4 -7 12 -7 24 0 10 5 21 6 25 3 10
-10 66 -9 66 2 0 7 3 7 8 0 10 -14 52 -15 52 -1 0 6 7 2 15 -8 10 -13 15 -15
15 -6 0 7 3 10 7 7 3 -4 13 -1 21 6 13 9 14 9 8 0 -9 -16 35 -13 46 2 5 6 8 6
8 -2 0 -12 30 -10 52 3 7 5 8 3 3 -5 -6 -10 -3 -11 14 -2 14 8 21 8 21 1 0 -7
6 -8 18 -1 20 10 40 10 59 -2 6 -4 18 -1 26 7 11 11 17 12 27 3 10 -9 11 -9 6
1 -5 8 3 12 28 13 20 1 42 2 49 3 6 1 15 -3 19 -9 5 -6 8 -2 8 9 0 15 3 16 15
6 12 -10 15 -10 15 0 0 7 7 10 15 6 8 -3 15 0 15 7 0 8 3 8 9 -2 5 -8 11 -9
15 -3 4 6 15 9 26 7 11 -2 20 0 20 5 0 6 10 10 23 10 12 0 32 1 45 1 14 0 20
4 16 12 -5 8 -3 8 7 0 16 -16 33 -17 23 -1 -5 8 0 9 14 6 12 -4 22 -2 22 3 0
4 7 6 15 3 8 -4 15 -1 15 6 0 9 4 9 17 -1 9 -8 14 -9 10 -3 -7 13 19 27 33 19
5 -3 11 -1 15 5 3 5 12 10 18 10 7 0 6 -4 -3 -10 -10 -7 -11 -10 -2 -10 7 0
15 7 18 15 4 10 10 12 18 6 11 -10 51 11 40 21 -2 3 7 3 21 1 16 -4 25 -1 25
8 0 7 3 9 7 6 3 -4 13 -1 21 6 13 10 14 9 7 -3 -5 -9 1 -7 15 5 13 11 21 15
17 9 -3 -6 0 -11 8 -11 8 0 13 5 12 11 -1 6 5 12 13 12 8 1 20 3 25 4 6 1 13
2 18 1 4 0 7 4 7 10 0 6 7 9 15 5 9 -3 23 3 32 14 10 11 22 20 28 20 5 0 3 -5
-5 -10 -10 -7 -11 -10 -2 -10 7 0 15 6 18 14 3 8 12 12 20 9 8 -3 14 0 14 6 0
6 9 11 21 11 13 0 18 4 13 12 -4 7 -3 8 5 4 6 -4 17 -3 24 2 7 5 20 8 29 7 10
-2 15 2 12 10 -3 7 0 16 7 21 7 4 10 3 5 -4 -4 -6 1 -10 13 -9 11 0 17 5 15 9
-3 5 8 13 25 19 19 7 28 15 24 22 -4 7 2 5 12 -3 10 -8 16 -10 12 -4 -4 7 0
15 9 18 10 4 13 2 9 -7 -4 -6 2 -2 13 10 11 12 22 19 26 16 3 -4 6 -1 6 6 0 7
5 9 10 6 6 -3 10 -1 10 5 0 6 4 9 9 6 5 -3 11 1 15 9 3 8 12 15 21 15 8 0 15
5 15 11 0 6 6 9 13 6 8 -3 20 3 27 13 8 11 17 17 22 14 4 -3 8 0 8 6 0 6 5 8
10 5 6 -3 10 -1 10 4 0 6 7 11 15 11 8 0 15 5 15 11 0 6 7 9 15 6 8 -4 17 -2
20 3 4 7 13 6 25 0 11 -6 21 -6 24 -1 3 5 19 7 36 6 20 -2 34 3 40 14 5 9 10
11 10 6 0 -6 15 -10 33 -10 17 0 43 -3 56 -7 19 -7 22 -6 17 8 -5 14 -4 15 9
4 9 -7 18 -10 22 -7 3 4 15 2 26 -4 13 -8 17 -8 13 0 -4 6 6 9 29 7 20 -1 35
2 35 8 0 6 4 5 9 -3 8 -12 12 -12 25 -2 13 11 16 11 16 0 0 -11 2 -11 10 1 6
10 10 11 10 3 0 -9 7 -10 23 -5 12 4 36 7 52 6 17 -1 35 3 42 8 7 6 14 5 19
-3 5 -8 3 -9 -6 -4 -8 5 -11 4 -7 -3 9 -13 30 -10 53 8 11 9 15 10 10 3 -4 -8
-1 -13 9 -13 10 0 14 5 9 13 -6 10 -4 10 7 0 15 -15 33 -17 24 -4 -3 5 0 13 6
17 7 4 9 3 6 -3 -4 -6 0 -13 8 -17 8 -3 15 -1 15 5 0 6 6 6 18 0 10 -5 24 -6
32 -1 7 4 19 6 27 3 7 -3 13 0 13 7 0 9 4 9 13 2 8 -7 18 -7 27 -2 8 5 21 5
31 -1 12 -6 20 -5 25 2 4 8 9 7 15 -2 7 -11 9 -11 9 -1 0 9 7 11 21 7 16 -6
20 -4 13 6 -6 11 -5 12 7 3 8 -7 23 -8 34 -4 11 4 28 3 39 -2 13 -7 16 -7 12
1 -10 15 7 14 23 -1 11 -11 12 -10 6 1 -6 10 -4 13 7 8 9 -3 21 0 27 6 8 8 11
8 11 -1 0 -8 7 -9 23 -4 12 5 34 7 50 6 17 -2 25 1 21 8 -4 7 0 7 13 -1 15 -8
25 -7 39 4 22 17 38 19 29 5 -3 -5 0 -7 7 -5 16 6 21 42 8 50 -5 3 -11 1 -15
-5 -4 -7 -12 -7 -26 0 -14 8 -19 7 -19 -2 0 -9 -3 -9 -10 2 -8 12 -10 12 -10
1 0 -10 -3 -11 -13 -2 -10 8 -17 7 -25 -1 -9 -9 -12 -9 -12 1 0 11 -3 11 -15
1 -12 -10 -15 -10 -15 1 0 11 -2 11 -10 -1 -8 -12 -10 -12 -10 -1 0 11 -3 11
-15 1 -12 -10 -15 -10 -15 0 0 10 -3 10 -15 0 -12 -10 -15 -10 -15 0 0 10 -3
10 -14 1 -11 -9 -15 -9 -19 1 -4 10 -6 10 -6 -1 -1 -11 -4 -11 -16 -1 -12 10
-15 10 -15 0 0 -10 -3 -10 -15 0 -12 10 -15 10 -15 0 0 -10 -3 -10 -14 -1 -11
9 -16 9 -21 0 -6 -8 -10 -7 -16 2 -7 11 -9 11 -9 1 0 -8 -5 -10 -12 -5 -20 12
-38 12 -38 1 0 -6 -6 -5 -15 2 -12 10 -15 10 -15 0 0 -10 -3 -10 -15 0 -12 10
-15 10 -15 0 0 -10 -3 -10 -15 0 -8 7 -15 8 -15 3 0 -5 -7 -10 -15 -10 -8 0
-15 4 -15 9 0 5 -6 6 -12 1 -20 -12 -38 -12 -38 -1 0 6 -6 5 -15 -2 -12 -10
-15 -10 -15 0 0 10 -3 10 -14 1 -11 -9 -15 -9 -19 1 -4 10 -6 10 -6 -1 -1 -11
-4 -11 -16 -1 -12 10 -15 10 -15 -1 0 -10 -3 -10 -12 -1 -7 7 -17 8 -30 1 -13
-7 -18 -6 -18 2 0 8 -4 8 -15 -1 -8 -7 -15 -8 -15 -3 0 5 -7 10 -15 10 -8 0
-15 -5 -15 -10 0 -5 -6 -5 -13 2 -10 8 -17 7 -25 -1 -8 -8 -12 -8 -12 -1 0 5
-10 9 -22 8 -13 -1 -23 -3 -23 -5 0 -7 -47 -5 -51 2 -3 5 -12 4 -20 -3 -8 -6
-14 -7 -14 -2 0 11 -59 11 -77 0 -6 -4 -15 -3 -18 3 -5 8 -11 7 -21 -1 -8 -6
-14 -7 -14 -2 0 5 -7 10 -15 10 -8 0 -15 -5 -15 -10 0 -5 -6 -5 -13 2 -10 8
-17 7 -25 -1 -9 -9 -12 -9 -12 0 0 10 -5 10 -20 2 -14 -8 -20 -8 -20 0 0 7 -6
8 -17 2 -10 -5 -27 -6 -38 -2 -11 4 -28 3 -37 -2 -12 -6 -18 -5 -18 2 0 7 -6
8 -19 0 -14 -7 -21 -6 -24 3 -4 9 -6 9 -6 -1 -1 -10 -6 -10 -22 -1 -16 8 -20
8 -14 -1 6 -9 2 -9 -14 -1 -14 8 -21 8 -21 1 0 -7 -7 -8 -17 -3 -20 10 -65 9
-81 -1 -6 -3 -13 0 -15 6 -4 10 -6 9 -6 -1 -1 -11 -4 -11 -16 -1 -11 9 -15 9
-15 1 0 -8 -5 -9 -19 -1 -11 5 -22 6 -25 2 -4 -7 -51 -9 -51 -2 0 1 -10 3 -22
4 -13 2 -23 -1 -23 -6 0 -5 -6 -6 -12 -1 -20 12 -38 12 -38 1 0 -6 -5 -7 -12
-2 -16 11 -39 11 -55 1 -7 -5 -13 -4 -13 0 0 5 -9 9 -20 9 -11 0 -20 -4 -20
-9 0 -4 -5 -5 -12 -1 -16 10 -76 12 -90 2 -7 -3 -20 -2 -30 3 -13 7 -18 6 -18
-2 0 -9 -3 -9 -14 0 -10 8 -16 9 -21 1 -4 -7 -12 -7 -25 0 -13 7 -20 6 -24 -3
-5 -9 -7 -9 -12 0 -4 9 -11 10 -23 3 -10 -5 -21 -7 -24 -3 -11 10 -52 9 -59
-2 -5 -6 -8 -5 -8 3 0 10 -5 10 -21 1 -12 -6 -19 -7 -15 -1 3 6 -5 9 -19 8
-14 0 -25 -5 -25 -10 0 -5 -6 -4 -13 3 -10 8 -17 7 -25 -1 -9 -9 -12 -9 -12 0
0 9 -5 10 -18 3 -10 -5 -24 -6 -32 -1 -7 4 -24 4 -36 0 -15 -6 -26 -5 -30 1
-4 6 -11 6 -20 -2 -11 -9 -14 -9 -14 0 0 8 -5 9 -19 1 -14 -7 -22 -7 -26 0 -5
8 -12 7 -23 -2 -12 -10 -16 -10 -19 -1 -3 9 -10 10 -24 3 -13 -8 -19 -7 -19 0
0 7 -6 8 -18 1 -11 -6 -24 -6 -35 0 -12 7 -17 6 -17 -2 0 -7 -5 -8 -12 -3 -16
11 -39 11 -55 1 -7 -5 -13 -4 -13 2 0 10 -19 9 -37 -2 -8 -5 -13 -3 -13 3 0 7
-6 8 -19 1 -10 -6 -21 -8 -23 -5 -11 10 -48 12 -53 3 -4 -5 -14 -5 -26 1 -14
8 -19 7 -19 -2 0 -10 -2 -10 -8 -1 -5 8 -13 9 -22 3 -9 -5 -19 -5 -26 1 -8 7
-14 6 -19 -1 -5 -8 -10 -8 -20 0 -9 8 -15 8 -20 0 -4 -7 -12 -7 -26 0 -14 8
-19 7 -19 -2 0 -8 -3 -9 -8 -3 -10 14 -32 17 -32 4 0 -8 -4 -8 -13 0 -10 8
-17 7 -26 -2 -7 -7 -14 -8 -19 -2 -8 12 -32 13 -49 2 -7 -5 -13 -4 -13 0 0 5
-11 9 -25 9 -14 0 -25 -4 -25 -9 0 -4 -6 -5 -12 -1 -19 12 -48 12 -48 0 0 -7
-3 -7 -8 -1 -8 12 -32 13 -49 2 -7 -5 -13 -4 -13 0 0 10 -87 10 -96 0 -4 -3
-15 -2 -25 4 -14 7 -19 6 -19 -2 0 -9 -3 -9 -14 0 -10 8 -16 9 -21 1 -4 -7
-12 -7 -26 0 -12 7 -19 7 -19 1 0 -7 -9 -7 -25 -1 -18 7 -25 6 -25 -3 0 -7 -3
-8 -8 -2 -4 6 -16 10 -27 10 -11 0 -23 -4 -27 -10 -5 -6 -8 -5 -8 3 0 9 -5 10
-19 3 -10 -6 -22 -7 -25 -3 -10 9 -40 9 -47 -1 -3 -5 -13 -1 -23 8 -15 15 -16
15 -16 -2z"/>
<path d="M7096 2258 c3 -4 11 -5 19 -1 21 7 19 12 -4 10 -11 0 -18 -5 -15 -9z"/>
</g>
</svg>
